<?xml version="1.0" encoding="UTF-8"?>
<!DOCTYPE svg PUBLIC "-//W3C//DTD SVG 1.1//EN" "http://www.w3.org/Graphics/SVG/1.1/DTD/svg11.dtd">
<!-- Creator: CorelDRAW -->
<svg xmlns="http://www.w3.org/2000/svg" xml:space="preserve" width="214.77mm" height="146.72mm" style="shape-rendering:geometricPrecision; text-rendering:geometricPrecision; image-rendering:optimizeQuality; fill-rule:evenodd; clip-rule:evenodd"
viewBox="0 0 167.347 114.323"
 xmlns:xlink="http://www.w3.org/1999/xlink">
 <defs>
  <style type="text/css">
   <![CDATA[
    .fil0 {fill:#010101}
    .fil1 {fill:#7E7E7E}
   ]]>
  </style>
 </defs>
 <g id="Ebene_x0020_1">
  <metadata id="CorelCorpID_0Corel-Layer"/>
  <path class="fil0" d="M-0 4.17156l0 105.715c1.817,3.86767 2.41207,4.1273 6.59695,4.11351 3.11505,-0.0102074 6.23096,-0.00101295 9.34617,-0.00101295 7.86742,0 14.1295,2.03221 14.2963,-6.2294 0.336377,-16.6537 -0.00249341,-34.0082 -0.00249341,-50.7408 0,-16.7479 0.324689,-34.0652 0.00319469,-50.7407 -0.0815035,-4.22641 -1.78521,-6.18741 -4.93937,-6.23922l-18.9791 0.007714c-4.04891,-0.0167526 -4.58531,0.407595 -6.32166,4.1146z"/>
  <path class="fil0" d="M34.1596 4.12231l0 105.715c1.817,3.86767 2.41207,4.1273 6.59695,4.11351 3.11505,-0.0102074 6.23096,-0.00101295 9.34617,-0.00101295 7.86742,0 14.1295,2.03221 14.2963,-6.2294 0.336377,-16.6537 -0.00249341,-34.0082 -0.00249341,-50.7408 0,-16.7479 0.324689,-34.0652 0.00319469,-50.7407 -0.0815035,-4.22641 -1.78521,-6.18741 -4.93937,-6.23922l-18.9791 0.007714c-4.04891,-0.0167526 -4.58531,0.407595 -6.32166,4.1146z"/>
  <path class="fil0" d="M102.611 4.25283l0 105.715c1.817,3.86767 2.41207,4.1273 6.59695,4.11351 3.11505,-0.0102074 6.23096,-0.00101295 9.34617,-0.00101295 7.86742,0 14.1295,2.03221 14.2963,-6.2294 0.336377,-16.6537 -0.00249341,-34.0082 -0.00249341,-50.7408 0,-16.7479 0.324689,-34.0652 0.00319469,-50.7407 -0.0815035,-4.22641 -1.78521,-6.18741 -4.93937,-6.23922l-18.9791 0.007714c-4.04891,-0.0167526 -4.58531,0.407595 -6.32166,4.1146z"/>
  <path class="fil0" d="M68.5073 4.14335l0 105.715c1.817,3.86767 2.41207,4.1273 6.59695,4.11351 3.11505,-0.0102074 6.23096,-0.00101295 9.34617,-0.00101295 7.86742,0 14.1295,2.03221 14.2963,-6.2294 0.336377,-16.6537 -0.00249341,-34.0082 -0.00249341,-50.7408 0,-16.7479 0.324689,-34.0652 0.00319469,-50.7407 -0.0815035,-4.22641 -1.78521,-6.18741 -4.93937,-6.23922l-18.9791 0.007714c-4.04891,-0.0167526 -4.58531,0.407595 -6.32166,4.1146z"/>
  <path class="fil0" d="M136.958 4.27387l0 105.715c1.817,3.86767 2.41207,4.1273 6.59695,4.11351 3.11505,-0.0102074 6.23096,-0.00101295 9.34617,-0.00101295 7.86742,0 14.1295,2.03221 14.2963,-6.2294 0.336377,-16.6537 -0.00249341,-34.0082 -0.00249341,-50.7408 0,-16.7479 0.324689,-34.0652 0.00319469,-50.7407 -0.0815035,-4.22641 -1.78521,-6.18741 -4.93937,-6.23922l-18.9791 0.007714c-4.04891,-0.0167526 -4.58531,0.407595 -6.32166,4.1146z"/>
  <path class="fil1" d="M13.2752 32.1053c-5.51185,1.07178 -10.277,6.06889 -8.97013,12.7819 2.80673,14.4177 24.1581,10.138 21.631,-3.94809 -0.942588,-5.25378 -6.18857,-10.0923 -12.6609,-8.83385z"/>
  <path class="fil1" d="M47.4349 32.056c-5.51185,1.07178 -10.277,6.06889 -8.97013,12.7819 2.80673,14.4177 24.1581,10.138 21.631,-3.94809 -0.942588,-5.25378 -6.18857,-10.0923 -12.6609,-8.83385z"/>
  <path class="fil1" d="M115.886 32.1865c-5.51185,1.07178 -10.277,6.06889 -8.97013,12.7819 2.80673,14.4177 24.1581,10.138 21.631,-3.94809 -0.942588,-5.25378 -6.18857,-10.0923 -12.6609,-8.83385z"/>
  <path class="fil1" d="M81.7826 32.0771c-5.51185,1.07178 -10.277,6.06889 -8.97013,12.7819 2.80673,14.4177 24.1581,10.138 21.631,-3.94809 -0.942588,-5.25378 -6.18857,-10.0923 -12.6609,-8.83385z"/>
  <path class="fil1" d="M150.234 32.2076c-5.51185,1.07178 -10.277,6.06889 -8.97013,12.7819 2.80673,14.4177 24.1581,10.138 21.631,-3.94809 -0.942588,-5.25378 -6.18857,-10.0923 -12.6609,-8.83385z"/>
  <path class="fil1" d="M13.1899 4.81338c-14.7489,3.19889 -9.99454,24.0168 3.91256,21.6034 5.23874,-0.909083 10.0506,-6.20704 8.81196,-12.8259 -0.976016,-5.21568 -6.22465,-10.1872 -12.7245,-8.77752z"/>
  <path class="fil1" d="M47.3495 4.76413c-14.7489,3.19889 -9.99454,24.0168 3.91256,21.6034 5.23874,-0.909083 10.0506,-6.20704 8.81196,-12.8259 -0.976016,-5.21568 -6.22465,-10.1872 -12.7245,-8.77752z"/>
  <path class="fil1" d="M115.801 4.89465c-14.7489,3.19889 -9.99454,24.0168 3.91256,21.6034 5.23874,-0.909083 10.0506,-6.20704 8.81196,-12.8259 -0.976016,-5.21568 -6.22465,-10.1872 -12.7245,-8.77752z"/>
  <path class="fil1" d="M81.6972 4.78517c-14.7489,3.19889 -9.99454,24.0168 3.91256,21.6034 5.23874,-0.909083 10.0506,-6.20704 8.81196,-12.8259 -0.976016,-5.21568 -6.22465,-10.1872 -12.7245,-8.77752z"/>
  <path class="fil1" d="M150.148 4.91569c-14.7489,3.19889 -9.99454,24.0168 3.91256,21.6034 5.23874,-0.909083 10.0506,-6.20704 8.81196,-12.8259 -0.976016,-5.21568 -6.22465,-10.1872 -12.7245,-8.77752z"/>
  <path class="fil1" d="M13.2752 59.3555c-5.57255,1.0269 -10.2323,6.00858 -8.96803,12.8062 0.995573,5.35297 6.24062,10.0124 12.7959,8.79536 5.34868,-0.993002 10.0633,-6.21943 8.82364,-12.8122 -0.995963,-5.29726 -6.1726,-9.98324 -12.6515,-8.78936z"/>
  <path class="fil1" d="M47.4349 59.3062c-5.57255,1.0269 -10.2323,6.00858 -8.96803,12.8062 0.995573,5.35297 6.24062,10.0124 12.7959,8.79536 5.34868,-0.993002 10.0633,-6.21943 8.82364,-12.8122 -0.995963,-5.29726 -6.1726,-9.98324 -12.6515,-8.78936z"/>
  <path class="fil1" d="M115.886 59.4367c-5.57255,1.0269 -10.2323,6.00858 -8.96803,12.8062 0.995573,5.35297 6.24062,10.0124 12.7959,8.79536 5.34868,-0.993002 10.0633,-6.21943 8.82364,-12.8122 -0.995963,-5.29726 -6.1726,-9.98324 -12.6515,-8.78936z"/>
  <path class="fil1" d="M81.7826 59.3273c-5.57255,1.0269 -10.2323,6.00858 -8.96803,12.8062 0.995573,5.35297 6.24062,10.0124 12.7959,8.79536 5.34868,-0.993002 10.0633,-6.21943 8.82364,-12.8122 -0.995963,-5.29726 -6.1726,-9.98324 -12.6515,-8.78936z"/>
  <path class="fil1" d="M150.234 59.4578c-5.57255,1.0269 -10.2323,6.00858 -8.96803,12.8062 0.995573,5.35297 6.24062,10.0124 12.7959,8.79536 5.34868,-0.993002 10.0633,-6.21943 8.82364,-12.8122 -0.995963,-5.29726 -6.1726,-9.98324 -12.6515,-8.78936z"/>
  <path class="fil1" d="M13.2756 86.6139c-5.57255,1.0269 -10.2323,6.00858 -8.96803,12.8062 0.995573,5.35297 6.24062,10.0124 12.7959,8.79536 5.34868,-0.993002 10.0633,-6.21943 8.82364,-12.8122 -0.995963,-5.29726 -6.1726,-9.98324 -12.6515,-8.78936z"/>
  <path class="fil1" d="M47.4352 86.5646c-5.57255,1.0269 -10.2323,6.00858 -8.96803,12.8062 0.995573,5.35297 6.24062,10.0124 12.7959,8.79536 5.34868,-0.993002 10.0633,-6.21943 8.82364,-12.8122 -0.995963,-5.29726 -6.1726,-9.98324 -12.6515,-8.78936z"/>
  <path class="fil1" d="M115.886 86.6951c-5.57255,1.0269 -10.2323,6.00858 -8.96803,12.8062 0.995573,5.35297 6.24062,10.0124 12.7959,8.79536 5.34868,-0.993002 10.0633,-6.21943 8.82364,-12.8122 -0.995963,-5.29726 -6.1726,-9.98324 -12.6515,-8.78936z"/>
  <path class="fil1" d="M81.7829 86.5857c-5.57255,1.0269 -10.2323,6.00858 -8.96803,12.8062 0.995573,5.35297 6.24062,10.0124 12.7959,8.79536 5.34868,-0.993002 10.0633,-6.21943 8.82364,-12.8122 -0.995963,-5.29726 -6.1726,-9.98324 -12.6515,-8.78936z"/>
  <path class="fil1" d="M150.234 86.7162c-5.57255,1.0269 -10.2323,6.00858 -8.96803,12.8062 0.995573,5.35297 6.24062,10.0124 12.7959,8.79536 5.34868,-0.993002 10.0633,-6.21943 8.82364,-12.8122 -0.995963,-5.29726 -6.1726,-9.98324 -12.6515,-8.78936z"/>
 </g>
</svg>
