<?xml version="1.0" encoding="UTF-8"?>
<!DOCTYPE svg PUBLIC "-//W3C//DTD SVG 1.1//EN" "http://www.w3.org/Graphics/SVG/1.1/DTD/svg11.dtd">
<!-- Creator: CorelDRAW -->
<svg xmlns="http://www.w3.org/2000/svg" xml:space="preserve" width="13.2292mm" height="13.2292mm" style="shape-rendering:geometricPrecision; text-rendering:geometricPrecision; image-rendering:optimizeQuality; fill-rule:evenodd; clip-rule:evenodd"
viewBox="0 0 13.2292 13.2292"
 xmlns:xlink="http://www.w3.org/1999/xlink">
 <defs>
  <style type="text/css">
   <![CDATA[
    .fil3 {fill:url(#id4)}
    .fil1 {fill:url(#id5)}
    .fil0 {fill:url(#id6)}
    .fil2 {fill:url(#id7)}
   ]]>
  </style>
     <mask id="id0">
  <linearGradient id="id1" gradientUnits="userSpaceOnUse" x1="6.6146" y1="1.2765" x2="6.6146" y2="11.9527">
   <stop offset="0" style="stop-opacity:1; stop-color:white"/>
   <stop offset="1" style="stop-opacity:0.352941; stop-color:white"/>
  </linearGradient>
      <rect style="fill:url(#id1)" x="1.2384" y="1.2384" width="10.7524" height="10.7524"/>
     </mask>
     <mask id="id2">
  <linearGradient id="id3" gradientUnits="userSpaceOnUse" x1="6.6085" y1="8.5" x2="6.6085" y2="-1.3876">
   <stop offset="0" style="stop-opacity:0; stop-color:white"/>
   <stop offset="1" style="stop-opacity:0.87451; stop-color:white"/>
  </linearGradient>
      <rect style="fill:url(#id3)" x="2.7574" y="-1.4258" width="7.7022" height="9.9639"/>
     </mask>
  <linearGradient id="id4" gradientUnits="userSpaceOnUse" x1="6.6085" y1="8.5" x2="6.6085" y2="-1.3876">
   <stop offset="0" style="stop-color:white"/>
   <stop offset="1" style="stop-color:white"/>
  </linearGradient>
  <linearGradient id="id5" gradientUnits="userSpaceOnUse" x1="6.6146" y1="1.2765" x2="6.6146" y2="11.9527">
   <stop offset="0" style="stop-color:#828282"/>
   <stop offset="1" style="stop-color:#929292"/>
  </linearGradient>
  <linearGradient id="id6" gradientUnits="userSpaceOnUse" x1="6.6146" y1="0" x2="6.6146" y2="13.2292">
   <stop offset="0" style="stop-color:#ADADAD"/>
   <stop offset="1" style="stop-color:#F0F0F0"/>
  </linearGradient>
  <linearGradient id="id7" gradientUnits="userSpaceOnUse" x1="6.6146" y1="1.8357" x2="6.6146" y2="11.3935">
   <stop offset="0" style="stop-color:#20D400"/>
   <stop offset="1" style="stop-color:#A3FF87"/>
  </linearGradient>
 </defs>
 <g id="Ebene_x0020_1">
  <metadata id="CorelCorpID_0Corel-Layer"/>
  <g id="layer1" inkscape:groupmode="layer" inkscape:label="Calque 1">
   <g id="g9477">
    <path id="path7424" class="fil0" d="M13.2292 6.6146c0,3.6513 -2.9634,6.6146 -6.6146,6.6146 -3.6513,0 -6.6146,-2.9633 -6.6146,-6.6146 0,-3.6513 2.9633,-6.6146 6.6146,-6.6146 3.6512,0 6.6146,2.9633 6.6146,6.6146z"/>
    <path id="path7426" class="fil1" style="mask:url(#id0)" d="M11.9527 6.6146c0,2.9466 -2.3915,5.3381 -5.3381,5.3381 -2.9466,0 -5.3381,-2.3915 -5.3381,-5.3381 0,-2.9466 2.3915,-5.3381 5.3381,-5.3381 2.9466,0 5.3381,2.3915 5.3381,5.3381z"/>
    <path id="path7428" class="fil2" d="M11.3935 6.6146c0,2.638 -2.1409,4.7789 -4.7789,4.7789 -2.6379,0 -4.7789,-2.1409 -4.7789,-4.7789 0,-2.638 2.141,-4.7789 4.7789,-4.7789 2.638,0 4.7789,2.1409 4.7789,4.7789z"/>
    <path id="path7430" class="fil3" style="mask:url(#id2)" d="M10.4214 5.0205c0,1.6277 -1.7082,2.9487 -3.8129,2.9487 -2.1048,0 -3.813,-1.321 -3.813,-2.9487 0,-1.6276 1.7082,-2.9487 3.813,-2.9487 2.1047,0 3.8129,1.3211 3.8129,2.9487z"/>
   </g>
  </g>
 </g>
</svg>
