<?xml version="1.0" encoding="UTF-8"?>
<!DOCTYPE svg PUBLIC "-//W3C//DTD SVG 1.1//EN" "http://www.w3.org/Graphics/SVG/1.1/DTD/svg11.dtd">
<!-- Creator: CorelDRAW -->
<svg xmlns="http://www.w3.org/2000/svg" xml:space="preserve" width="64.8903mm" height="64.878mm" style="shape-rendering:geometricPrecision; text-rendering:geometricPrecision; image-rendering:optimizeQuality; fill-rule:evenodd; clip-rule:evenodd"
viewBox="0 0 15.4239 15.4209"
 xmlns:xlink="http://www.w3.org/1999/xlink">
 <defs>
  <style type="text/css">
   <![CDATA[
    .str0 {stroke:black;stroke-width:0.169783;stroke-linecap:round;stroke-linejoin:round}
    .str1 {stroke:#FFFFFE;stroke-width:0.169783;stroke-linecap:round;stroke-linejoin:round}
    .fil6 {fill:black}
    .fil9 {fill:white}
    .fil8 {fill:red;fill-rule:nonzero}
    .fil7 {fill:white;fill-rule:nonzero}
    .fil1 {fill:url(#id0)}
    .fil0 {fill:url(#id1)}
    .fil4 {fill:url(#id2)}
    .fil3 {fill:url(#id3)}
    .fil2 {fill:url(#id4)}
    .fil5 {fill:url(#id5);fill-rule:nonzero}
   ]]>
  </style>
  <linearGradient id="id0" gradientUnits="userSpaceOnUse" x1="3.87033" y1="11.5372" x2="11.554" y2="11.5372">
   <stop offset="0" style="stop-color:#262626"/>
   <stop offset="0.619608" style="stop-color:#C3C3C3"/>
   <stop offset="1" style="stop-color:white"/>
  </linearGradient>
  <linearGradient id="id1" gradientUnits="userSpaceOnUse" x1="7.71192" y1="0" x2="7.71192" y2="15.4209">
   <stop offset="0" style="stop-color:#F4F4F4"/>
   <stop offset="1" style="stop-color:#262626"/>
  </linearGradient>
  <linearGradient id="id2" gradientUnits="userSpaceOnUse" xlink:href="#id1" x1="7.71204" y1="0.0110289" x2="7.71204" y2="7.69511">
  </linearGradient>
  <linearGradient id="id3" gradientUnits="userSpaceOnUse" x1="10.9639" y1="11.8185" x2="12.1442" y2="7.41383">
   <stop offset="0" style="stop-color:#262626"/>
   <stop offset="0.619608" style="stop-color:#C3C3C3"/>
   <stop offset="1" style="stop-color:white"/>
  </linearGradient>
  <linearGradient id="id4" gradientUnits="userSpaceOnUse" x1="3.27962" y1="7.41383" x2="4.45985" y2="11.8184">
   <stop offset="0" style="stop-color:#262626"/>
   <stop offset="0.619608" style="stop-color:#C3C3C3"/>
   <stop offset="1" style="stop-color:white"/>
  </linearGradient>
  <radialGradient id="id5" gradientUnits="userSpaceOnUse" cx="7.71189" cy="7.7104" r="6.87727" fx="7.71189" fy="7.7104">
   <stop offset="0" style="stop-color:black"/>
   <stop offset="0.631373" style="stop-color:#1D1D1D"/>
   <stop offset="1" style="stop-color:#444444"/>
   <stop offset="1" style="stop-color:#444444"/>
  </radialGradient>
 </defs>
 <g id="Ebene_x0020_3">
  <metadata id="CorelCorpID_0Corel-Layer"/>
  <path id="path3796" class="fil0" d="M7.71189 15.4209c0.000475383,7.13074e-005 -0.00142615,7.13074e-005 -0.00142615,7.13074e-005 -4.25765,0 -7.71047,-3.45282 -7.71047,-7.71047 0,-4.25765 3.45282,-7.71047 7.71047,-7.71047 0,0 0.00190153,0 0.00190153,0 -0.000879458,0 0.00102207,0 0.00102207,0 4.25765,0 7.71047,3.45282 7.71047,7.71047 0,4.25765 -3.45282,7.71047 -7.71047,7.71047 0,0 -0.00190153,0 -0.00190153,0l0.000404075 -7.13074e-005z" sodipodi:ry="56.781116" sodipodi:rx="56.781116" sodipodi:cy="566.00861" sodipodi:cx="230.72961" sodipodi:type="arc" inkscape:label="#path8454"/>
  <g id="g3798">
   <path id="path3800" class="fil1" d="M11.554 14.3498c-1.16744,0.673926 -2.49395,1.02949 -3.84202,1.02949 -1.34807,0 -2.67455,-0.355562 -3.84161,-1.02916l3.84157 -6.65498 3.84207 6.65464z" sodipodi:end="2.0943951" sodipodi:start="1.0471976" sodipodi:ry="66.695282" sodipodi:rx="66.695282" sodipodi:cy="423.60516" sodipodi:cx="112.66094" sodipodi:type="arc"/>
   <path id="path3802" class="fil2" d="M1.05725 11.5372c-0.33524,-0.580181 -0.594014,-1.20529 -0.767624,-1.85318 -0.17361,-0.647899 -0.262055,-1.31864 -0.261936,-1.98881l7.6842 -4.75383e-005 -6.65464 3.84204z" inkscape:transform-center-x="33.347635" inkscape:transform-center-y="16.673795" sodipodi:type="arc" sodipodi:cx="112.66094" sodipodi:cy="423.60516" sodipodi:rx="66.695282" sodipodi:ry="66.695282" sodipodi:start="1.3089969" sodipodi:end="1.8325957"/>
   <path id="path3804" class="fil3" d="M15.396 7.69511c0.000190153,0.670099 -0.088231,1.34084 -0.261841,1.98874 -0.17361,0.647923 -0.432384,1.273 -0.767577,1.85333l-6.65472 -3.84207 7.68413 0z" sodipodi:end="1.8325957" sodipodi:start="1.3089969" sodipodi:ry="66.695282" sodipodi:rx="66.695282" sodipodi:cy="423.60516" sodipodi:cx="112.66094" sodipodi:type="arc" inkscape:transform-center-y="16.673849" inkscape:transform-center-x="-33.34764"/>
   <path id="path3806" class="fil4" d="M1.05725 3.85305c1.37203,-2.37763 3.90964,-3.84204 6.65457,-3.84204 2.74493,0 5.28352,1.46532 6.655,3.84252l-6.65493 3.84159 -6.65464 -3.84207z" inkscape:transform-center-x="-2.4633892e-05" inkscape:transform-center-y="-33.402436" sodipodi:type="arc" sodipodi:cx="112.66094" sodipodi:cy="423.60516" sodipodi:rx="66.695282" sodipodi:ry="66.695282" sodipodi:start="0.52359878" sodipodi:end="2.6179939"/>
  </g>
  <g id="_6309160">
   <path id="path3808" class="fil5" d="M14.7295 7.71037c0,3.87373 -3.14387,7.01762 -7.0176,7.01762 -3.8737,0 -7.0176,-3.1439 -7.0176,-7.01762 0,-3.8737 3.1439,-7.0176 7.0176,-7.0176 3.87373,0 7.0176,3.1439 7.0176,7.0176z"/>
   <path id="path3810" class="fil6 str0" d="M0.799023 7.7104c-4.75383e-005,0.000427844 -4.75383e-005,-0.00125976 -4.75383e-005,-0.00125976 0,-3.8172 3.09564,-6.91287 6.91285,-6.91287 3.8172,0 6.91285,3.09567 6.91285,6.91287 0,0 0,0.00168761 0,0.00168761 0,-0.000784381 0,0.000926996 0,0.000926996 0,3.8172 -3.09564,6.91285 -6.91285,6.91285 -3.8172,0 -6.91285,-3.09564 -6.91285,-6.91285 0,0 0,-0.00171138 0,-0.00171138l4.75383e-005 0.000356537z" sodipodi:ry="56.781116" sodipodi:rx="56.781116" sodipodi:cy="566.00861" sodipodi:cx="230.72961" sodipodi:type="arc"/>
   <path id="path4404" class="fil6 str1" d="M1.32722 7.7104c-4.75383e-005,0.000404075 -4.75383e-005,-0.00116469 -4.75383e-005,-0.00116469 0,-3.52556 2.85912,-6.38467 6.38465,-6.38467 3.52556,0 6.38467,2.85912 6.38467,6.38467 0,0 0,0.00156876 0,0.00156876 0,-0.000736843 0,0.000855689 0,0.000855689 0,3.52553 -2.85912,6.38465 -6.38467,6.38465 -3.52553,0 -6.38465,-2.85912 -6.38465,-6.38465 0,0 0,-0.00159253 0,-0.00159253l4.75383e-005 0.000332768z" sodipodi:type="arc" sodipodi:cx="230.72961" sodipodi:cy="566.00861" sodipodi:rx="56.781116" sodipodi:ry="56.781116"/>
   <rect id="rect3818" class="fil7" transform="matrix(0.5 -0.866025 0.866025 0.5 12.0651 10.3651)" width="0.244965" height="1.30022"/>
   <rect id="rect3833" class="fil8" transform="matrix(-0.225397 -0.904017 0.904017 -0.225397 1.62332 9.32426)" width="0.244965" height="1.30022"/>
   <rect id="rect3832" class="fil7" transform="matrix(0.0348995 -0.999391 0.999391 0.0348995 1.32721 7.59577)" width="0.244965" height="1.30022"/>
   <rect id="rect3831" class="fil7" transform="matrix(0.309017 -0.951057 0.951057 0.309017 1.60415 5.8405)" width="0.244965" height="1.30022"/>
   <rect id="rect3830" class="fil7" transform="matrix(0.559193 -0.829038 0.829038 0.559193 2.35592 4.2315)" width="0.244965" height="1.30022"/>
   <rect id="rect3829" class="fil7" transform="matrix(0.766044 -0.642788 0.642788 0.766044 3.5203 2.89203)" width="0.244965" height="1.30022"/>
   <rect id="rect3828" class="fil7" transform="matrix(0.913545 -0.406737 0.406737 0.913545 5.0068 1.92321)" width="0.244965" height="1.30022"/>
   <rect id="rect3827" class="fil7" transform="matrix(0.990268 -0.139173 0.139173 0.990268 6.70279 1.4029)" width="0.244965" height="1.30022"/>
   <rect id="rect3826" class="fil7" transform="matrix(0.990268 0.139173 -0.139173 0.990268 8.47625 1.36854)" width="0.244965" height="1.30022"/>
   <rect id="rect3825" class="fil7" transform="matrix(0.913545 0.406737 -0.406737 0.913545 10.1912 1.82274)" width="0.244965" height="1.30022"/>
   <rect id="rect3824" class="fil7" transform="matrix(0.766044 0.642788 -0.642788 0.766044 11.7141 2.73324)" width="0.244965" height="1.30022"/>
   <rect id="rect3823" class="fil7" transform="matrix(0.559193 0.829038 -0.829038 0.559193 12.9296 4.0267)" width="0.244965" height="1.30022"/>
   <rect id="rect3822" class="fil7" transform="matrix(0.309017 0.951057 -0.951057 0.309017 13.7432 5.60553)" width="0.244965" height="1.30022"/>
   <rect id="rect3821" class="fil7" transform="matrix(0.0348995 0.999391 -0.999391 0.0348995 14.0878 7.34886)" width="0.244965" height="1.30022"/>
   <rect id="rect3820" class="fil7" transform="matrix(-0.241922 0.970296 -0.970296 -0.241922 13.942 9.12116)" width="0.244965" height="1.30022"/>
   <rect id="rect3834" class="fil8" transform="matrix(-0.464961 -0.805336 0.805336 -0.464961 2.31159 10.9548)" width="0.244965" height="1.30022"/>
  </g>
  <path id="path5394" class="fil9" d="M7.10305 12.6426c-0.0163532,-0.0208218 -0.022961,-0.0419287 -0.0182309,-0.058377 0.00965027,-0.0333956 0.0508897,-0.068669 0.0803397,-0.068669 0.0225331,0 0.0231987,-0.0250764 0.02327,-0.862962 4.75383e-005,-0.843899 0.000594228,-0.863889 0.0248387,-0.903679 0.0439254,-0.0720205 0.0691444,-0.076085 0.469155,-0.0753006 0.389885,0.000736843 0.425301,0.00560952 0.469108,0.0646283 0.0242445,0.0326826 0.0259559,0.0524822 0.029545,0.34527l0.00382683 0.310544 0.0730425 0.0202988c0.0859254,0.023888 0.155878,0.0858541 0.182357,0.161511 0.0120272,0.0344415 0.0193005,0.14252 0.0244584,0.362313 0.00525298,0.224523 0.0118846,0.321264 0.0234364,0.341562 0.0423328,0.0741597 0.174774,0.100591 0.255138,0.0509135 0.10506,-0.0649373 0.118275,-0.163722 0.056523,-0.423186 -0.0483226,-0.203012 -0.0599458,-0.279216 -0.0750629,-0.491379 -0.0139287,-0.195644 -0.0321359,-0.267926 -0.101161,-0.401199 -0.0455417,-0.0879458 -0.146513,-0.201277 -0.212044,-0.238024 -0.0215111,-0.0120747 -0.0216061,-0.0148319 -0.00230561,-0.052197 0.0112666,-0.021725 0.0271919,-0.039433 0.0354873,-0.0393855 0.0364856,0.00028523 0.145206,0.0780341 0.220031,0.157352 0.0828592,0.0878507 0.163199,0.210618 0.201657,0.308167l0.0213209 0.0540985 -0.0380544 0.0339899 -0.0380544 0.0340136 0.011837 0.168024c0.0121936,0.173087 0.0241494,0.246581 0.0777726,0.478805 0.0660069,0.285634 0.0250764,0.433692 -0.140523,0.508778 -0.070214,0.0318506 -0.173134,0.0328965 -0.240068,0.00249576 -0.0517216,-0.0234839 -0.108744,-0.082051 -0.13237,-0.135888 -0.00836673,-0.0191104 -0.0163056,-0.156615 -0.0202513,-0.350809 -0.00594228,-0.289651 -0.00881835,-0.323094 -0.0308286,-0.359556 -0.0221291,-0.0366045 -0.103895,-0.0888015 -0.139026,-0.0888015 -0.0105773,0 -0.0151409,0.132465 -0.0176129,0.509777 -0.00332768,0.505047 -0.00311376,0.509824 0.0215824,0.509824 0.0444483,-4.75383e-005 0.079484,0.0346316 0.079484,0.0786283 0,0.0833583 0.0171375,0.0810527 -0.598935,0.0810527l-0.553987 0 -0.0256944 -0.032635zm0.920674 -1.24493c0.0229372,-0.0229848 0.0245535,-0.0409304 0.0245535,-0.276387 0,-0.235433 -0.0016163,-0.253426 -0.0245535,-0.276411 -0.0233175,-0.0232937 -0.0409542,-0.0245535 -0.343963,-0.0245535 -0.303009,0 -0.320669,0.00125976 -0.343963,0.0245535 -0.0229848,0.0229848 -0.0245773,0.040978 -0.0245773,0.276411 0,0.235457 0.00159253,0.253403 0.0245773,0.276387 0.0232937,0.0232937 0.0409542,0.0245773 0.343963,0.0245773 0.303009,0 0.320646,-0.00128353 0.343963,-0.0245773z"/>
 </g>
 <g id="Ebene_x0020_4">
  <metadata id="CorelCorpID_1Corel-Layer"/>
  <path class="fil7" d="M4.00163 11.1692c0.0108863,0 0.0231274,0.000190153 0.0365569,0.000689305 0.0134058,0.000499152 0.0270017,0.00116469 0.0409067,0.00199661 0.0139287,0.000855689 0.0270017,0.00202038 0.0392428,0.00335145 0.0112428,0.00118846 0.0212971,0.00487267 0.0300204,0.0112428 0.00888966,0.00653651 0.0155926,0.0147606 0.0202988,0.0249814 0.00166384,0.00420714 0.00351783,0.00905604 0.00553821,0.0147606 0.00199661,0.00587098 0.0038506,0.011742 0.00570459,0.0179457 0.00183022,0.00637013 0.00351783,0.0120747 0.0048489,0.0176129 0.00102207,0.00301868 0.00202038,0.00503906 0.00335145,0.00620374 0.00118846,0.000998304 0.00268591,0.00135484 0.00470629,0.00083192l0.0221291 -0.00401698c0.00301868,-0.000499152 0.00503906,-0.00116469 0.00637013,-0.00202038 0.00118846,-0.000998304 0.00168761,-0.00266214 0.00168761,-0.00501529 -0.000665536,-0.00755858 -0.00152122,-0.0174465 -0.00251953,-0.0296876 -0.00083192,-0.0120747 -0.00168761,-0.0251477 -0.00235314,-0.0394092 -0.00083192,-0.0140951 -0.00116469,-0.028 -0.00116469,-0.041596 0,-0.0067029 0,-0.0154262 0,-0.0258133 0,-0.0104109 0.000166384,-0.0211308 0.000332768,-0.0323736 0,-0.0110764 0.000166384,-0.0212971 0.000499152,-0.0303532 0.000332768,-0.00922242 0.000665536,-0.0159253 0.00118846,-0.0201325 0.000499152,-0.00301868 0,-0.00503906 -0.00118846,-0.00637013 -0.00116469,-0.00116469 -0.0028523,-0.00168761 -0.0048489,-0.00168761l-0.0261698 -0.00199661c-0.00202038,0 -0.0038506,0.000499152 -0.00553821,0.00166384 -0.00149746,0.00135484 -0.00235314,0.00335145 -0.00251953,0.00637013 0,0.00622751 -0.000998304,0.012764 -0.0028523,0.0197997 -0.00166384,0.00703566 -0.0038506,0.0137623 -0.00637013,0.0201325 -0.00251953,0.00653651 -0.00468252,0.0119083 -0.00686928,0.0164245 -0.00587098,0.011742 -0.0122411,0.0202988 -0.0193005,0.0256707 -0.00720205,0.00518167 -0.0160917,0.00872327 -0.026978,0.0105535 -0.00337522,0.00083192 -0.00957896,0.00152122 -0.0188014,0.00202038 -0.00922242,0.000665536 -0.0197759,0.00116469 -0.0316843,0.00166384 -0.0120747,0.000332768 -0.0238167,0.000689305 -0.0352259,0.00102207 -0.0115756,0.000166384 -0.0211308,0.000332768 -0.0289983,0.000332768l0.00199661 -0.290792 0.152954 0.00401698c0.0142615,0.000665536 0.0278337,0.00368422 0.0409067,0.00888966 0.0130968,0.00520544 0.0248387,0.0108863 0.0355586,0.0172802 0.00503906,0.00301868 0.011742,0.00853312 0.0204652,0.0165909 0.00855689,0.00789135 0.0177793,0.0171138 0.0278337,0.0273345 0.00988796,0.0104109 0.0194669,0.0204652 0.0286893,0.0305196 0.00905604,0.0100781 0.0167572,0.0184448 0.022961,0.0255043 0.00620374,0.00703566 0.00972157,0.011219 0.0107436,0.0127403 0.00149746,0.00251953 0.00301868,0.00401698 0.00451614,0.00468252 0.00152122,0.000855689 0.00301868,0.000855689 0.0045399,0.000356537l0.0181121 -0.00805774c0.00199661,-0.000998304 0.00335145,-0.00235314 0.0038506,-0.00401698 0.000499152,-0.00168761 0.000166384,-0.00404075 -0.00083192,-0.00705943 -0.000665536,-0.00183022 -0.00218676,-0.0067029 -0.0045399,-0.0144279 -0.00232937,-0.0077012 -0.00501529,-0.0172564 -0.00836673,-0.0286656 -0.00320883,-0.0112428 -0.00672666,-0.0231511 -0.0102445,-0.035725 -0.00351783,-0.0125739 -0.00703566,-0.0246486 -0.0102207,-0.0360578 -0.00335145,-0.0115756 -0.00603736,-0.0212971 -0.0083905,-0.0295213 -0.00235314,-0.00803397 -0.0038506,-0.0132394 -0.0045399,-0.0155926 -0.000499152,-0.00199661 -0.00133107,-0.00351783 -0.00249576,-0.00451614 -0.00118846,-0.00102207 -0.00301868,-0.00152122 -0.00553821,-0.00152122 -0.00185399,0 -0.00487267,0.000166384 -0.00905604,0.000166384 -0.00437352,0.000166384 -0.00922242,0.000332768 -0.0147606,0.000499152 -0.00553821,0.000190153 -0.01091,0.000356537 -0.0164482,0.000356537 -0.00653651,0 -0.0162581,0 -0.0293311,0.000166384 -0.0130968,0 -0.0283566,0.000166384 -0.0457793,0.000166384 -0.0172802,0.000166384 -0.0358914,0.000332768 -0.0555247,0.000499152 -0.0196095,0.000166384 -0.0390765,0.000166384 -0.058686,0.000332768 -0.0196333,0.000166384 -0.0382445,0.000332768 -0.0555247,0.000499152 -0.0174228,0 -0.0326826,0.000166384 -0.0457793,0.000166384 -0.013073,0.000166384 -0.0227946,0.000166384 -0.0293311,0.000166384l-0.0281902 0c-0.0273345,0.000332768 -0.0499627,0.000166384 -0.0682412,-0.000332768 -0.0182785,-0.000499152 -0.0330391,-0.000998304 -0.0446147,-0.00166384 -0.0114092,-0.000689305 -0.020798,-0.00102207 -0.028,-0.00102207 -0.00251953,0 -0.00404075,0.000499152 -0.00487267,0.00168761 -0.00083192,0.000998304 -0.00116469,0.0028523 -0.00116469,0.00537182l0 0.026146c0,0.00251953 0.000499152,0.00420714 0.00149746,0.00537182 0.000998304,0.00116469 0.00251953,0.00168761 0.0045399,0.00168761l0.0382208 0c0.0100781,-0.000166384 0.0179457,0.000998304 0.0239831,0.00301868 0.00603736,0.00216299 0.0105773,0.00584721 0.0137623,0.0108863 0.00318506,0.00520544 0.00537182,0.0122411 0.00653651,0.0212971 0.000499152,0.00301868 0.00083192,0.00988796 0.00116469,0.0204652 0.000522921,0.0107436 0.000855689,0.0239831 0.00118846,0.039742 0.000332768,0.0159253 0.000665536,0.0330391 0.00083192,0.0516503 0.000332768,0.0186112 0.000499152,0.0372462 0.000665536,0.0561902 0.000166384,0.0187776 0.000166384,0.0365569 0.000166384,0.0533142l0 0.0986181 0 0.239474c0.000166384,0.0122411 -0.000665536,0.0214635 -0.00268591,0.0278574 -0.00216299,0.00620374 -0.0067029,0.0103871 -0.0139049,0.0124075 -0.0073922,0.00216299 -0.0184448,0.00318506 -0.0337046,0.00301868l-0.0342275 0c-0.0038506,0 -0.00653651,0.000499152 -0.00803397,0.00183022 -0.00135484,0.00118846 -0.00202038,0.00318506 -0.00202038,0.00620374l0 0.0241494c0,0.00301868 0.000499152,0.00503906 0.00185399,0.00620374 0.00116469,0.00135484 0.00318506,0.00185399 0.00620374,0.00185399 0.00451614,0 0.0103871,-0.000166384 0.0174228,-0.000665536 0.00722582,-0.000332768 0.0157827,-0.000855689 0.025837,-0.00135484 0.0105535,0 0.0228184,-0.000166384 0.0367233,-0.000499152 0.0140951,-0.000332768 0.0303532,-0.000499152 0.048798,-0.000499152 0.0558575,0 0.104988,0.000166384 0.147416,0.000166384 0.0425943,0.000166384 0.0791512,0.000332768 0.110004,0.000499152 0.0308761,0.000166384 0.0566894,0.000332768 0.0776538,0.000332768 0.0206316,0.000332768 0.0372225,0.000689305 0.0498201,0.00102207 0.0125739,0.000332768 0.0219627,0.000499152 0.0281664,0.000665536 0.00620374,0.000166384 0.0100543,0.000332768 0.0115756,0.000332768 0.00603736,0 0.0108863,-0.00152122 0.0144279,-0.00418337 0.00368422,-0.00268591 0.00620374,-0.00637013 0.0077012,-0.01091l0.0482989 -0.150934c0.000998304,-0.00251953 0.00135484,-0.00451614 0.00083192,-0.00620374 -0.000332768,-0.00149746 -0.00133107,-0.0028523 -0.0028523,-0.0038506l-0.0160917 -0.0100781c-0.00202038,-0.000998304 -0.0038506,-0.00116469 -0.00553821,-0.000665536 -0.00166384,0.000665536 -0.00351783,0.00218676 -0.00553821,0.00470629 -0.00501529,0.00620374 -0.0117182,0.0144041 -0.0201087,0.0246486 -0.0083905,0.0100543 -0.0174465,0.0206316 -0.0270017,0.0316843 -0.00955519,0.0110764 -0.0186112,0.0211308 -0.0268353,0.0301868 -0.0083905,0.00922242 -0.014927,0.0159491 -0.0196333,0.0201325 -0.00886589,0.00736843 -0.0186112,0.0134058 -0.0289983,0.0182785 -0.0104109,0.00487267 -0.0202988,0.00855689 -0.029854,0.0110764 -0.00955519,0.00268591 -0.0174465,0.00418337 -0.0236503,0.0048489 -0.00520544,0.000522921 -0.0115756,0.00102207 -0.0191104,0.00152122 -0.00755858,0.000499152 -0.0155926,0.00083192 -0.0238167,0.00133107 -0.0083905,0.000332768 -0.0162581,0.000689305 -0.0234839,0.000855689 -0.00736843,0.000166384 -0.0134058,0.000332768 -0.0181121,0.000332768 -0.018944,0 -0.0348693,-0.000855689 -0.0474432,-0.00251953 -0.012764,-0.00152122 -0.0231511,-0.00335145 -0.0310425,-0.00553821 -0.00753481,-0.00185399 -0.0142377,-0.00570459 -0.0202751,-0.0114092 -0.00603736,-0.00570459 -0.01091,-0.0139049 -0.0144279,-0.024815 -0.00368422,-0.01091 -0.00537182,-0.0249814 -0.00553821,-0.0422615 0,-0.0038506 0,-0.0102207 -0.000166384,-0.0194431 -0.000166384,-0.00922242 -0.000332768,-0.0202988 -0.000665536,-0.0328727 -0.000166384,-0.0127403 -0.000332768,-0.0261698 -0.000689305,-0.0402649 -0.000332768,-0.0140713 -0.000499152,-0.028 -0.00083192,-0.0415722 -0.000166384,-0.0135959 -0.000499152,-0.025837 -0.000665536,-0.0369135l-0.000998304 -0.0603736z"/>
  <path class="fil7" d="M11.2376 10.8442c0.00789135,0 0.0187776,0.000166384 0.0325399,0.000499152 0.0137386,0.000166384 0.0286656,0.000665536 0.0451138,0.00116469 0.0164245,0.000522921 0.0326826,0.00118846 0.0486316,0.00202038 0.0159253,0.000665536 0.0300204,0.00152122 0.0422615,0.00251953 0.0122411,0.00083192 0.0211308,0.00185399 0.026669,0.0028523 0.0132394,0.00318506 0.0259797,0.00888966 0.037888,0.0171138 0.0120747,0.00820035 0.0222954,0.0179219 0.0305196,0.0291647 0.0182785,0.0202988 0.0335382,0.0385773 0.0459457,0.0545026 0.0125976,0.0161155 0.0212971,0.0288557 0.0265026,0.0380781 0.0028523,0.00401698 0.00520544,0.00653651 0.0067029,0.0077012 0.00168761,0.00135484 0.0035416,0.00135484 0.00537182,0.000356537l0.0191104 -0.00805774c0.00152122,-0.000499152 0.00251953,-0.00152122 0.00301868,-0.0028523 0.000522921,-0.00152122 0.000522921,-0.00318506 0,-0.00520544 -0.000665536,-0.00218676 -0.00199661,-0.00736843 -0.00401698,-0.0154262 -0.00202038,-0.00805774 -0.00451614,-0.0179457 -0.00736843,-0.0296876 -0.00268591,-0.011742 -0.00570459,-0.0239831 -0.00872327,-0.0368897 -0.00301868,-0.0129066 -0.00603736,-0.0253141 -0.00872327,-0.0372225 -0.0028523,-0.0119083 -0.00537182,-0.0221528 -0.0073922,-0.0306859 -0.00199661,-0.00855689 -0.00335145,-0.0142615 -0.00401698,-0.0171138 0,-0.00401698 -0.000499152,-0.00703566 -0.00149746,-0.00938881 -0.00102207,-0.00218676 -0.00251953,-0.00368422 -0.0045399,-0.00470629 -0.00218676,0.000166384 -0.00686928,0.000855689 -0.0139049,0.00202038 -0.00689305,0.00116469 -0.0150934,0.00185399 -0.0243396,0.00202038 -0.00938881,0 -0.0222954,0 -0.0385535,0.000166384 -0.0162819,0 -0.0347267,0.000166384 -0.0553583,0.000166384 -0.0206078,0.000166384 -0.041905,0.000332768 -0.0640578,0.000499152 -0.0222954,0.000166384 -0.0439254,0.000166384 -0.0650561,0.000332768 -0.0211308,0.000166384 -0.0404313,0.000332768 -0.0580442,0.000499152 -0.0174228,0 -0.0316843,0.000166384 -0.0429271,0.000166384 -0.011219,0.000166384 -0.0179457,0.000166384 -0.0201087,0.000166384 -0.028523,0 -0.0526724,-0.000166384 -0.0724483,-0.000499152 -0.0197997,-0.000332768 -0.0358914,-0.000665536 -0.0482989,-0.000998304 -0.0124075,-0.000332768 -0.0219864,-0.000665536 -0.0286893,-0.00102207 -0.0067029,-0.000332768 -0.0112428,-0.000499152 -0.0135722,-0.000499152 -0.00202038,0 -0.00387437,0.000499152 -0.00553821,0.00152122 -0.00152122,0.000998304 -0.00235314,0.00251953 -0.00251953,0.00451614l0 0.0291885c0.000166384,0.00149746 0.000998304,0.00268591 0.00251953,0.00368422 0.00166384,0.00083192 0.00351783,0.00135484 0.00553821,0.00135484l0.0502955 0c0.0130968,0 0.0231511,0.00249576 0.0300204,0.00720205 0.0067029,0.00487267 0.0102445,0.0119083 0.0102445,0.0209644 0,0.00202038 0,0.00720205 0.000166384,0.0154262 0.000166384,0.00822412 0.000166384,0.0186112 0.000332768,0.0310187 0.000166384,0.0124075 0.000332768,0.025837 0.000499152,0.0402649 0.000166384,0.0142377 0.000332768,0.0286656 0.000499152,0.0429271 0.000166384,0.0142377 0.000332768,0.0273345 0.000332768,0.0392428 0.000166384,0.0120747 0.000166384,0.0217963 0.000166384,0.0293311l0 0.0704517c0,0.0434262 -0.000166384,0.083501 -0.000332768,0.120248 -0.000166384,0.0365569 -0.000499152,0.0690731 -0.00083192,0.0970969 -0.000332768,0.028 -0.000665536,0.0509848 -0.000998304,0.0684076 -0.000356537,0.0176129 -0.000522921,0.0290221 -0.000855689,0.0342275 -0.000332768,0.00836673 -0.00301868,0.0140713 -0.00786758,0.0169236 -0.00503906,0.00301868 -0.0134296,0.00437352 -0.0253379,0.00420714l-0.0402411 0c-0.00401698,0 -0.00603736,0.00199661 -0.00603736,0.00603736l0 0.0271681c0,0.00251953 0.000499152,0.00434975 0.00149746,0.00534805 0.00102207,0.00118846 0.00251953,0.00168761 0.0045399,0.00168761 0.00451614,0 0.0122411,-0.000332768 0.0231511,-0.00083192 0.0110526,-0.000499152 0.026146,-0.000855689 0.045613,-0.00135484 0.0194431,-0.000499152 0.0440917,-0.00083192 0.0741122,-0.00083192 0.0327063,0 0.0593753,0.000332768 0.0801733,0.00083192 0.020798,0.000499152 0.0367233,0.000855689 0.0476333,0.00135484 0.0108863,0.000499152 0.0179219,0.00083192 0.0211308,0.00083192 0.00301868,0 0.00501529,-0.000499152 0.00620374,-0.00185399 0.00133107,-0.00116469 0.00183022,-0.00318506 0.00183022,-0.00620374l0 -0.0251477c0,-0.00251953 -0.000499152,-0.00434975 -0.00183022,-0.00537182 -0.00118846,-0.00116469 -0.00318506,-0.00166384 -0.00620374,-0.00166384l-0.0543362 0c-0.00805774,0.000166384 -0.0144279,-0.000499152 -0.0191342,-0.00202038 -0.00468252,-0.00149746 -0.00803397,-0.00470629 -0.0100543,-0.00938881 -0.00202038,-0.0045399 -0.00301868,-0.0115756 -0.00301868,-0.020798l0 -0.25055c0.0102207,0 0.0217963,0 0.0348693,0.000166384 0.0130968,0.000166384 0.026669,0.000665536 0.0405977,0.00168761 0.0139049,0.00083192 0.0273345,0.00216299 0.0402411,0.00418337 0.0100781,0.00202038 0.0194669,0.0067029 0.0281902,0.0137623 0.00853312,0.00720205 0.0159253,0.0162581 0.0221291,0.0275009 0.00133107,0.00235314 0.00268591,0.00570459 0.00434975,0.0102207 0.00152122,0.00437352 0.00318506,0.00905604 0.00470629,0.0140951 0.00149746,0.00501529 0.0028523,0.00972157 0.00401698,0.0139049 0.00102207,0.00420714 0.00168761,0.00722582 0.00202038,0.00905604 0.000499152,0.00301868 0.00149746,0.00503906 0.0028523,0.00620374 0.00149746,0.00135484 0.00318506,0.00185399 0.00520544,0.00185399l0.0221291 -0.00401698c0.00202038,-0.000499152 0.00368422,-0.00135484 0.0048489,-0.0028523 0.00118846,-0.00135484 0.00168761,-0.0038506 0.00118846,-0.00722582 -0.000665536,-0.00703566 -0.00152122,-0.0162581 -0.00251953,-0.028 -0.00083192,-0.011742 -0.00168761,-0.0243158 -0.00235314,-0.037888 -0.00083192,-0.0135959 -0.00116469,-0.0265026 -0.00116469,-0.0387437 0,-0.00301868 0,-0.00822412 0,-0.0155926 0,-0.0073922 0,-0.0159491 0.000166384,-0.0256707 0,-0.00972157 0.000166384,-0.0194431 0.000332768,-0.0293549 0,-0.00988796 0.000332768,-0.0186112 0.000499152,-0.0266452 0.000332768,-0.00789135 0.000665536,-0.0135959 0.00102207,-0.0174465 0,-0.00404075 -0.00202038,-0.00603736 -0.00603736,-0.00603736l-0.0201325 -0.00202038c-0.00202038,0 -0.00368422,0.00083192 -0.00520544,0.00251953 -0.00133107,0.00149746 -0.00235314,0.00335145 -0.0028523,0.00553821 -0.00199661,0.00922242 -0.00451614,0.0184448 -0.00753481,0.0275009 -0.00301868,0.00922242 -0.00653651,0.0171138 -0.0105773,0.0238167 -0.0083905,0.0125739 -0.0169236,0.0219627 -0.0254805,0.0283328 -0.00855689,0.00637013 -0.0179457,0.00988796 -0.0278337,0.01091 -0.00420714,0.000998304 -0.0107436,0.00183022 -0.0196333,0.00251953 -0.00888966,0.000665536 -0.0187776,0.00116469 -0.0296876,0.00149746 -0.0108863,0.000332768 -0.0214635,0.000665536 -0.0318506,0.00083192 -0.0104109,0.000166384 -0.0193005,0.000166384 -0.0265026,0.000166384l0 -0.321977z"/>
 </g>
</svg>
