<?xml version="1.0" encoding="UTF-8"?>
<!DOCTYPE svg PUBLIC "-//W3C//DTD SVG 1.1//EN" "http://www.w3.org/Graphics/SVG/1.1/DTD/svg11.dtd">
<!-- Creator: CorelDRAW -->
<svg xmlns="http://www.w3.org/2000/svg" xml:space="preserve" width="64.8903mm" height="64.878mm" style="shape-rendering:geometricPrecision; text-rendering:geometricPrecision; image-rendering:optimizeQuality; fill-rule:evenodd; clip-rule:evenodd"
viewBox="0 0 15.4239 15.4209"
 xmlns:xlink="http://www.w3.org/1999/xlink">
 <defs>
  <style type="text/css">
   <![CDATA[
    .str0 {stroke:black;stroke-width:0.169783;stroke-linecap:round;stroke-linejoin:round}
    .str1 {stroke:#FFFFFE;stroke-width:0.169783;stroke-linecap:round;stroke-linejoin:round}
    .fil6 {fill:black}
    .fil7 {fill:white;fill-rule:nonzero}
    .fil1 {fill:url(#id0)}
    .fil0 {fill:url(#id1)}
    .fil4 {fill:url(#id2)}
    .fil3 {fill:url(#id3)}
    .fil2 {fill:url(#id4)}
    .fil5 {fill:url(#id5);fill-rule:nonzero}
   ]]>
  </style>
  <linearGradient id="id0" gradientUnits="userSpaceOnUse" x1="3.87033" y1="11.5372" x2="11.554" y2="11.5372">
   <stop offset="0" style="stop-color:#262626"/>
   <stop offset="0.619608" style="stop-color:#C3C3C3"/>
   <stop offset="1" style="stop-color:white"/>
  </linearGradient>
  <linearGradient id="id1" gradientUnits="userSpaceOnUse" x1="7.71192" y1="0" x2="7.71192" y2="15.4209">
   <stop offset="0" style="stop-color:#F4F4F4"/>
   <stop offset="1" style="stop-color:#262626"/>
  </linearGradient>
  <linearGradient id="id2" gradientUnits="userSpaceOnUse" xlink:href="#id1" x1="7.71204" y1="0.0110289" x2="7.71204" y2="7.69511">
  </linearGradient>
  <linearGradient id="id3" gradientUnits="userSpaceOnUse" x1="10.9639" y1="11.8185" x2="12.1442" y2="7.41383">
   <stop offset="0" style="stop-color:#262626"/>
   <stop offset="0.619608" style="stop-color:#C3C3C3"/>
   <stop offset="1" style="stop-color:white"/>
  </linearGradient>
  <linearGradient id="id4" gradientUnits="userSpaceOnUse" x1="3.27962" y1="7.41383" x2="4.45985" y2="11.8184">
   <stop offset="0" style="stop-color:#262626"/>
   <stop offset="0.619608" style="stop-color:#C3C3C3"/>
   <stop offset="1" style="stop-color:white"/>
  </linearGradient>
  <radialGradient id="id5" gradientUnits="userSpaceOnUse" cx="7.71189" cy="7.7104" r="6.87727" fx="7.71189" fy="7.7104">
   <stop offset="0" style="stop-color:black"/>
   <stop offset="0.631373" style="stop-color:#1D1D1D"/>
   <stop offset="1" style="stop-color:#444444"/>
   <stop offset="1" style="stop-color:#444444"/>
  </radialGradient>
 </defs>
 <g id="Ebene_x0020_3">
  <metadata id="CorelCorpID_0Corel-Layer"/>
  <path id="path3796" class="fil0" d="M7.71189 15.4209c0.000475383,7.13074e-005 -0.00142615,7.13074e-005 -0.00142615,7.13074e-005 -4.25765,0 -7.71047,-3.45282 -7.71047,-7.71047 0,-4.25765 3.45282,-7.71047 7.71047,-7.71047 0,0 0.00190153,0 0.00190153,0 -0.000879458,0 0.00102207,0 0.00102207,0 4.25765,0 7.71047,3.45282 7.71047,7.71047 0,4.25765 -3.45282,7.71047 -7.71047,7.71047 0,0 -0.00190153,0 -0.00190153,0l0.000404075 -7.13074e-005z" sodipodi:ry="56.781116" sodipodi:rx="56.781116" sodipodi:cy="566.00861" sodipodi:cx="230.72961" sodipodi:type="arc" inkscape:label="#path8454"/>
  <g id="g3798">
   <path id="path3800" class="fil1" d="M11.554 14.3498c-1.16744,0.673926 -2.49395,1.02949 -3.84202,1.02949 -1.34807,0 -2.67455,-0.355562 -3.84161,-1.02916l3.84157 -6.65498 3.84207 6.65464z" sodipodi:end="2.0943951" sodipodi:start="1.0471976" sodipodi:ry="66.695282" sodipodi:rx="66.695282" sodipodi:cy="423.60516" sodipodi:cx="112.66094" sodipodi:type="arc"/>
   <path id="path3802" class="fil2" d="M1.05725 11.5372c-0.33524,-0.580181 -0.594014,-1.20529 -0.767624,-1.85318 -0.17361,-0.647899 -0.262055,-1.31864 -0.261936,-1.98881l7.6842 -4.75383e-005 -6.65464 3.84204z" inkscape:transform-center-x="33.347635" inkscape:transform-center-y="16.673795" sodipodi:type="arc" sodipodi:cx="112.66094" sodipodi:cy="423.60516" sodipodi:rx="66.695282" sodipodi:ry="66.695282" sodipodi:start="1.3089969" sodipodi:end="1.8325957"/>
   <path id="path3804" class="fil3" d="M15.396 7.69511c0.000190153,0.670099 -0.088231,1.34084 -0.261841,1.98874 -0.17361,0.647923 -0.432384,1.273 -0.767577,1.85333l-6.65472 -3.84207 7.68413 0z" sodipodi:end="1.8325957" sodipodi:start="1.3089969" sodipodi:ry="66.695282" sodipodi:rx="66.695282" sodipodi:cy="423.60516" sodipodi:cx="112.66094" sodipodi:type="arc" inkscape:transform-center-y="16.673849" inkscape:transform-center-x="-33.34764"/>
   <path id="path3806" class="fil4" d="M1.05725 3.85305c1.37203,-2.37763 3.90964,-3.84204 6.65457,-3.84204 2.74493,0 5.28352,1.46532 6.655,3.84252l-6.65493 3.84159 -6.65464 -3.84207z" inkscape:transform-center-x="-2.4633892e-05" inkscape:transform-center-y="-33.402436" sodipodi:type="arc" sodipodi:cx="112.66094" sodipodi:cy="423.60516" sodipodi:rx="66.695282" sodipodi:ry="66.695282" sodipodi:start="0.52359878" sodipodi:end="2.6179939"/>
  </g>
  <g id="_6309160">
   <path id="path3808" class="fil5" d="M14.7295 7.71037c0,3.87373 -3.14387,7.01762 -7.0176,7.01762 -3.8737,0 -7.0176,-3.1439 -7.0176,-7.01762 0,-3.8737 3.1439,-7.0176 7.0176,-7.0176 3.87373,0 7.0176,3.1439 7.0176,7.0176z"/>
   <path id="path3810" class="fil6 str0" d="M0.799023 7.7104c-4.75383e-005,0.000427844 -4.75383e-005,-0.00125976 -4.75383e-005,-0.00125976 0,-3.8172 3.09564,-6.91287 6.91285,-6.91287 3.8172,0 6.91285,3.09567 6.91285,6.91287 0,0 0,0.00168761 0,0.00168761 0,-0.000784381 0,0.000926996 0,0.000926996 0,3.8172 -3.09564,6.91285 -6.91285,6.91285 -3.8172,0 -6.91285,-3.09564 -6.91285,-6.91285 0,0 0,-0.00171138 0,-0.00171138l4.75383e-005 0.000356537z" sodipodi:ry="56.781116" sodipodi:rx="56.781116" sodipodi:cy="566.00861" sodipodi:cx="230.72961" sodipodi:type="arc"/>
   <path id="path4404" class="fil6 str1" d="M1.32722 7.7104c-4.75383e-005,0.000404075 -4.75383e-005,-0.00116469 -4.75383e-005,-0.00116469 0,-3.52556 2.85912,-6.38467 6.38465,-6.38467 3.52556,0 6.38467,2.85912 6.38467,6.38467 0,0 0,0.00156876 0,0.00156876 0,-0.000736843 0,0.000855689 0,0.000855689 0,3.52553 -2.85912,6.38465 -6.38467,6.38465 -3.52553,0 -6.38465,-2.85912 -6.38465,-6.38465 0,0 0,-0.00159253 0,-0.00159253l4.75383e-005 0.000332768z" sodipodi:type="arc" sodipodi:cx="230.72961" sodipodi:cy="566.00861" sodipodi:rx="56.781116" sodipodi:ry="56.781116"/>
   <rect id="rect3818" class="fil7" transform="matrix(0.5 -0.866025 0.866025 0.5 12.0651 10.3651)" width="0.244965" height="1.30022"/>
   <rect id="rect3833" class="fil7" transform="matrix(-0.241922 -0.970296 0.970296 -0.241922 1.53714 9.36199)" width="0.244965" height="1.30022"/>
   <rect id="rect3832" class="fil7" transform="matrix(0.0348995 -0.999391 0.999391 0.0348995 1.32721 7.59577)" width="0.244965" height="1.30022"/>
   <rect id="rect3831" class="fil7" transform="matrix(0.309017 -0.951057 0.951057 0.309017 1.60415 5.8405)" width="0.244965" height="1.30022"/>
   <rect id="rect3830" class="fil7" transform="matrix(0.559193 -0.829038 0.829038 0.559193 2.35592 4.2315)" width="0.244965" height="1.30022"/>
   <rect id="rect3829" class="fil7" transform="matrix(0.766044 -0.642788 0.642788 0.766044 3.5203 2.89203)" width="0.244965" height="1.30022"/>
   <rect id="rect3828" class="fil7" transform="matrix(0.913545 -0.406737 0.406737 0.913545 5.0068 1.92321)" width="0.244965" height="1.30022"/>
   <rect id="rect3827" class="fil7" transform="matrix(0.990268 -0.139173 0.139173 0.990268 6.70279 1.4029)" width="0.244965" height="1.30022"/>
   <rect id="rect3826" class="fil7" transform="matrix(0.990268 0.139173 -0.139173 0.990268 8.47625 1.36854)" width="0.244965" height="1.30022"/>
   <rect id="rect3825" class="fil7" transform="matrix(0.913545 0.406737 -0.406737 0.913545 10.1912 1.82274)" width="0.244965" height="1.30022"/>
   <rect id="rect3824" class="fil7" transform="matrix(0.766044 0.642788 -0.642788 0.766044 11.7141 2.73324)" width="0.244965" height="1.30022"/>
   <rect id="rect3823" class="fil7" transform="matrix(0.559193 0.829038 -0.829038 0.559193 12.9296 4.0267)" width="0.244965" height="1.30022"/>
   <rect id="rect3822" class="fil7" transform="matrix(0.309017 0.951057 -0.951057 0.309017 13.7432 5.60553)" width="0.244965" height="1.30022"/>
   <rect id="rect3821" class="fil7" transform="matrix(0.0348995 0.999391 -0.999391 0.0348995 14.0878 7.34886)" width="0.244965" height="1.30022"/>
   <rect id="rect3820" class="fil7" transform="matrix(-0.241922 0.970296 -0.970296 -0.241922 13.942 9.12116)" width="0.244965" height="1.30022"/>
   <rect id="rect3834" class="fil7" transform="matrix(-0.5 -0.866025 0.866025 -0.5 2.23268 11.0153)" width="0.244965" height="1.30022"/>
  </g>
  <path class="fil7" d="M5.04324 11.7082c0,0.00320883 0,0.0114092 0,0.0246724 0,0.013073 0,0.029854 0,0.0497963 -0.000166384,0.0199661 -0.000166384,0.0417624 -0.000166384,0.0650799 -0.000190153,0.0234601 -0.000190153,0.046944 -0.000356537,0.0705943 -0.000166384,0.0236503 -0.000332768,0.045613 -0.000499152,0.0659118 -0.000332768,0.0204652 -0.000499152,0.0375552 -0.00083192,0.0513176 -0.000332768,0.0139049 -0.000665536,0.0227946 -0.00116469,0.0268353 -0.000522921,0.0077012 -0.00370798,0.0140713 -0.00941258,0.0192768 -0.00568082,0.00503906 -0.0137386,0.00772497 -0.0237929,0.00789135l-0.0573549 0c-0.00202038,0 -0.00370798,0.000499152 -0.00503906,0.00183022 -0.00135484,0.00118846 -0.00202038,0.00318506 -0.00202038,0.00620374l0 0.0231511c0,0.00351783 0.000499152,0.00587098 0.00185399,0.00720205 0.00116469,0.00135484 0.00318506,0.00185399 0.00620374,0.00185399 0.00451614,0 0.0127403,-0.000332768 0.0246486,-0.00083192 0.0120747,-0.000499152 0.0288557,-0.000855689 0.050652,-0.00135484 0.0217963,-0.000499152 0.0496299,-0.00083192 0.0836911,-0.00083192 0.026978,0 0.0496299,0.000166384 0.0680748,0.000499152 0.0182785,0.000332768 0.0330391,0.000665536 0.0444483,0.000998304 0.0112428,0.000356537 0.0199423,0.000689305 0.0258133,0.00102207 0.00603736,0.000332768 0.0102445,0.000499152 0.0125739,0.000499152 0.00404075,0 0.00672666,-0.000998304 0.00805774,-0.0028523 0.00152122,-0.00166384 0.00218676,-0.00418337 0.00202038,-0.00720205l0 -0.0211308c0,-0.00251953 -0.000499152,-0.00470629 -0.00152122,-0.00637013 -0.000998304,-0.00168761 -0.00251953,-0.00268591 -0.00451614,-0.00268591l-0.0583532 0c-0.00805774,0.000166384 -0.0145942,-0.00251953 -0.0196333,-0.00805774 -0.00503906,-0.00553821 -0.00872327,-0.0154262 -0.0110764,-0.0295213 -0.00232937,-0.0140713 -0.00351783,-0.0337046 -0.00351783,-0.0590188l0 -0.536327 0.0281902 0c0.00736843,0 0.0164245,0 0.0273345,0.000332768 0.0107199,0.000166384 0.0222954,0.000689305 0.0347029,0.00135484 0.0124075,0.000665536 0.0246486,0.00166384 0.0365569,0.00301868 0.0120747,0.00133107 0.0229848,0.00318506 0.0328727,0.00537182 0.00988796,0.00216299 0.0176129,0.0048489 0.0234839,0.00803397 0.00720205,0.00520544 0.0145942,0.0125739 0.0222954,0.0221528 0.00772497,0.00955519 0.0154262,0.0199423 0.0228184,0.0311851 0.00736843,0.0112428 0.0139049,0.0221291 0.0199423,0.0327063 0.00603736,0.0105535 0.01091,0.0194431 0.0144279,0.026669 0.00152122,0.00301868 0.0028523,0.00518167 0.00418337,0.0067029 0.00135484,0.00133107 0.0028523,0.00183022 0.00487267,0.00133107l0.0201325 -0.00703566c0.00149746,-0.000499152 0.00268591,-0.00135484 0.00351783,-0.00268591 0.00083192,-0.00133107 0.000998304,-0.00351783 0.000499152,-0.00637013 -0.00166384,-0.00988796 -0.00368422,-0.0221291 -0.00603736,-0.0367233 -0.00235314,-0.0145942 -0.00487267,-0.0300204 -0.00753481,-0.0463023 -0.00251953,-0.0162581 -0.00503906,-0.0318506 -0.0073922,-0.046944 -0.00235314,-0.0150934 -0.00434975,-0.028 -0.00603736,-0.0390765 -0.00166384,-0.01091 -0.00268591,-0.0182785 -0.00318506,-0.0221291 -0.00083192,-0.00603736 -0.00202038,-0.0102445 -0.00351783,-0.0125976 -0.00135484,-0.00249576 -0.00351783,-0.00368422 -0.00653651,-0.00351783 -0.0028523,0 -0.00570459,0.00102207 -0.00822412,0.00268591 -0.00268591,0.00185399 -0.00603736,0.00437352 -0.00988796,0.0073922 -0.00537182,0.0038506 -0.0124075,0.00753481 -0.0212971,0.0113854 -0.00888966,0.00387437 -0.0179457,0.00722582 -0.0271681,0.00991173 -0.00938881,0.0028523 -0.0172802,0.00434975 -0.0239831,0.0048489 -0.0114092,0.000499152 -0.0231511,0.00118846 -0.0350595,0.00185399 -0.0120747,0.000665536 -0.0254805,0.00133107 -0.0404075,0.00183022 -0.014927,0.000689305 -0.0323736,0.00118846 -0.052506,0.00168761 -0.0199423,0.000499152 -0.043759,0.000665536 -0.0712599,0.000665536l-0.0543362 0c-0.0244822,0 -0.0459457,-0.000166384 -0.0643906,-0.000665536 -0.018635,-0.000499152 -0.0350595,-0.000998304 -0.0498201,-0.00168761 -0.0145942,-0.000499152 -0.0284992,-0.00116469 -0.0414296,-0.00183022 -0.0129066,-0.000665536 -0.026146,-0.00135484 -0.0395756,-0.00185399 -0.0139049,-0.000332768 -0.0263124,-0.00216299 -0.0372225,-0.00587098 -0.01091,-0.00368422 -0.0212971,-0.0103871 -0.0311851,-0.0202751 -0.0028523,-0.00301868 -0.00553821,-0.00553821 -0.00805774,-0.0073922 -0.00235314,-0.00166384 -0.00503906,-0.00268591 -0.00805774,-0.00268591 -0.00216299,-0.000166384 -0.00434975,0.00118846 -0.0067029,0.00368422 -0.00251953,0.00268591 -0.00418337,0.00755858 -0.00537182,0.0144279 -0.000665536,0.00251953 -0.00216299,0.00789135 -0.00418337,0.0159491 -0.00218676,0.00803397 -0.00487267,0.0181121 -0.00789135,0.0298303 -0.00301868,0.011742 -0.00637013,0.0243158 -0.00972157,0.0377454 -0.00351783,0.0134058 -0.00703566,0.026669 -0.0103871,0.039742 -0.00335145,0.013073 -0.00656028,0.0249814 -0.00922242,0.0358914 -0.0028523,0.0107199 -0.00520544,0.0194431 -0.00689305,0.0260034 -0.000499152,0.00249576 -0.000499152,0.00451614 0.000166384,0.00620374 0.000522921,0.00149746 0.00185399,0.0028523 0.00387437,0.0038506l0.0201087 0.00703566c0.00251953,0.00083192 0.0045399,0.000665536 0.00637013,-0.00083192 0.00168761,-0.00152122 0.00318506,-0.00351783 0.00470629,-0.00620374 0.00487267,-0.00872327 0.0107436,-0.018944 0.0176129,-0.0303532 0.0067029,-0.0115756 0.0142615,-0.0229848 0.0222954,-0.0345603 0.00805774,-0.0115518 0.0162819,-0.0217963 0.024815,-0.0308523 0.0083905,-0.00888966 0.016781,-0.0152598 0.0248387,-0.018944 0.0107199,-0.00351783 0.0227946,-0.00620374 0.0362242,-0.00822412 0.0134058,-0.00183022 0.0271681,-0.00335145 0.0410731,-0.00418337 0.0137623,-0.000855689 0.0268353,-0.00135484 0.0390765,-0.00152122 0.0120747,-0.000166384 0.0223192,-0.000166384 0.0305196,-0.000166384l0.0281902 0 0 0.251549z"/>
  <path id="1" class="fil7" d="M6.07962 11.7767c0.00703566,-0.000166384 0.0125739,0.00083192 0.0164245,0.00268591 0.00368422,0.00185399 0.00570459,0.00487267 0.00570459,0.00938881l0 0.0281664c0,0.00318506 0,0.00974534 -0.000166384,0.0197997 0,0.00988796 -0.000166384,0.0221291 -0.000332768,0.0363905 -0.000166384,0.0144279 -0.000499152,0.029854 -0.000665536,0.0461121 -0.000332768,0.0164482 -0.000499152,0.0327063 -0.000855689,0.0486316 -0.000332768,0.0161155 -0.000665536,0.0308761 -0.000998304,0.0441155 -0.000332768,0.0134058 -0.000665536,0.0241494 -0.000998304,0.0323736 -0.000166384,0.00905604 -0.00083192,0.01709 -0.00185399,0.0238167 -0.000998304,0.0067029 -0.00335145,0.0120747 -0.00703566,0.0157589 -0.00351783,0.00368422 -0.00938881,0.00570459 -0.0172802,0.00570459l-0.0543362 0c-0.00335145,0 -0.00553821,0.000665536 -0.0067029,0.00216299 -0.000998304,0.00135484 -0.00135484,0.00337522 -0.00135484,0.00587098l0 0.0231511c0,0.00218676 0.000522921,0.00418337 0.00185399,0.00603736 0.00116469,0.00185399 0.00318506,0.0028523 0.00620374,0.00301868 0.00686928,0 0.0145942,-0.000166384 0.0228184,-0.000499152 0.00836673,-0.000332768 0.0182785,-0.000665536 0.029854,-0.00102207 0.0115518,-0.000332768 0.0256469,-0.000665536 0.0422615,-0.000998304 0.0165909,-0.000332768 0.0365569,-0.000499152 0.0600171,-0.000499152 0.0286893,0 0.0521732,0.000332768 0.0704517,0.00083192 0.0182785,0.000499152 0.0325399,0.000855689 0.0430934,0.00135484 0.0103871,0.000499152 0.0181121,0.00083192 0.0233175,0.00083192 0.00401698,0 0.0067029,-0.000998304 0.00803397,-0.0028523 0.00152122,-0.00166384 0.00218676,-0.00418337 0.00202038,-0.00720205l0 -0.0231511c0,-0.00202038 -0.000499152,-0.00368422 -0.00166384,-0.00503906 -0.00135484,-0.00133107 -0.00337522,-0.00199661 -0.0063939,-0.00199661l-0.0402411 0c-0.014927,0.000166384 -0.0253141,-0.00370798 -0.0313515,-0.0115756 -0.00620374,-0.00789135 -0.00905604,-0.020798 -0.00888966,-0.0387437 0,-0.011742 0,-0.0261698 -0.000166384,-0.0432598 -0.000166384,-0.0171138 -0.000332768,-0.0353922 -0.000499152,-0.0548354 -0.000190153,-0.0194669 -0.000522921,-0.0387437 -0.000689305,-0.0577115 -0.000166384,-0.0191104 -0.000332768,-0.0362242 -0.000499152,-0.0518167 0,-0.0154262 -0.000166384,-0.0278337 -0.000166384,-0.0368897l0 -0.108672c0,-0.00553821 0,-0.0134058 0.000166384,-0.0238167 0.000166384,-0.0102207 0.000166384,-0.0219627 0.000332768,-0.0348693 0.000166384,-0.0129304 0.000332768,-0.0261698 0.000499152,-0.039742 0.000166384,-0.0134296 0.000356537,-0.0261698 0.000522921,-0.0380781 0.000166384,-0.0120747 0.000332768,-0.0221291 0.000332768,-0.0303532 0.000166384,-0.0083905 0.000166384,-0.0137623 0.000166384,-0.0162581 -0.000166384,-0.011742 0.000332768,-0.0214873 0.00166384,-0.0290221 0.00118846,-0.00755858 0.00420714,-0.0132394 0.00872327,-0.0169474 0.00470629,-0.00351783 0.0119083,-0.00534805 0.0217963,-0.00534805l0.0362242 0c0.00487267,0 0.00822412,-0.00102207 0.00991173,-0.0028523 0.00149746,-0.00168761 0.00232937,-0.00420714 0.00216299,-0.00722582l0 -0.0211308c0.000166384,-0.00251953 -0.000665536,-0.00468252 -0.00216299,-0.00637013 -0.00168761,-0.00166384 -0.00503906,-0.00268591 -0.00991173,-0.00268591 -0.0077012,0.000166384 -0.0222954,0.000665536 -0.043759,0.00152122 -0.0212971,0.00083192 -0.0509848,0.00133107 -0.0890629,0.00149746 -0.0399084,-0.000166384 -0.0715926,-0.000665536 -0.0947438,-0.00149746 -0.0231511,-0.000855689 -0.0392428,-0.00135484 -0.0481325,-0.00152122 -0.00335145,0 -0.00553821,0.000665536 -0.0067029,0.00218676 -0.000998304,0.00133107 -0.00135484,0.00335145 -0.00135484,0.00587098l0 0.0231511c0,0.00301868 0.000356537,0.00518167 0.00135484,0.0067029 0.00116469,0.00149746 0.00335145,0.00235314 0.0067029,0.00235314l0.0462785 0c0.0073922,0 0.0129304,0.00199661 0.016781,0.00584721 0.00368422,0.00387437 0.00637013,0.00957896 0.00789135,0.0171138 0.00149746,0.0073922 0.00232937,0.0166146 0.00249576,0.0273345 0.000190153,0.00202038 0.000522921,0.00705943 0.000689305,0.0152598 0.000332768,0.00805774 0.000665536,0.0182785 0.00116469,0.0303532 0.000332768,0.0120747 0.000665536,0.0251715 0.000998304,0.0390765 0.000522921,0.0137623 0.000855689,0.0275009 0.00118846,0.0410968 0.000332768,0.0134058 0.000499152,0.0256469 0.000665536,0.0365569 0.000332768,0.0110764 0.000332768,0.0196095 0.000332768,0.0258133l0 0.0301868c0.000166384,0.00537182 -0.00116469,0.00924619 -0.00401698,0.0112428 -0.0028523,0.00202038 -0.00822412,0.00301868 -0.0161155,0.0028523l-0.332031 0c-0.0045399,0 -0.00755858,-0.000998304 -0.00941258,-0.00335145 -0.00183022,-0.00218676 -0.00266214,-0.00570459 -0.00266214,-0.0107436l0 -0.0402411c0,-0.00451614 0.000166384,-0.0115756 0.000332768,-0.0209644 0.000166384,-0.00938881 0.000499152,-0.0201087 0.000665536,-0.0323736 0.000332768,-0.0122411 0.000665536,-0.024815 0.00116469,-0.0377216 0.000332768,-0.0129066 0.000689305,-0.0251477 0.00118846,-0.0367233 0.000332768,-0.0115756 0.000665536,-0.0212971 0.000998304,-0.0293549 0.000332768,-0.00822412 0.000499152,-0.0134058 0.000665536,-0.0159253 0.000166384,-0.013073 0.00118846,-0.0236503 0.00301868,-0.0318744 0.00202038,-0.00803397 0.00587098,-0.0140713 0.011742,-0.0179457 0.00570459,-0.00368422 0.0145942,-0.00551444 0.0265026,-0.00551444l0.0362242 0c0.00401698,0 0.0067029,-0.00102207 0.00805774,-0.0028523 0.00149746,-0.00168761 0.00216299,-0.00420714 0.00199661,-0.00722582l0 -0.0211308c0.000166384,-0.00251953 -0.000499152,-0.00468252 -0.00199661,-0.00637013 -0.00135484,-0.00166384 -0.00404075,-0.00268591 -0.00805774,-0.00268591 -0.00587098,0 -0.0142615,0.000332768 -0.0255043,0.000855689 -0.011219,0.000332768 -0.0263124,0.00083192 -0.045613,0.00133107 -0.0192768,0.000499152 -0.043759,0.00083192 -0.0737794,0.00083192 -0.0244822,0 -0.0452802,-0.000166384 -0.062394,-0.000499152 -0.0169236,-0.000332768 -0.0310187,-0.000665536 -0.0422615,-0.000998304 -0.011219,-0.000332768 -0.0202751,-0.000855689 -0.0271681,-0.00102207 -0.00703566,-0.000332768 -0.0127403,-0.000499152 -0.01709,-0.000499152 -0.00387437,0.000166384 -0.00656028,0.00135484 -0.00805774,0.00351783 -0.00133107,0.00218676 -0.00202038,0.00437352 -0.00202038,0.00656028l0 0.0211308c0,0.00249576 0.000689305,0.00468252 0.00202038,0.00637013 0.00149746,0.00166384 0.00418337,0.00251953 0.00805774,0.00268591l0.0442581 0c0.0105773,-0.000166384 0.0186112,0.00166384 0.0243158,0.00551444 0.00553821,0.00370798 0.00922242,0.0104109 0.0112428,0.0197997 0.00185399,0.00938881 0.0028523,0.0224618 0.00268591,0.0390765 0,0.00318506 0.000166384,0.0100543 0.000166384,0.0206316 0.000166384,0.0103871 0.000332768,0.0227946 0.000499152,0.0370561 0.000166384,0.0142615 0.000499152,0.0288557 0.000665536,0.043759 0.000166384,0.014927 0.000356537,0.028523 0.000522921,0.0407641 0.000166384,0.0122411 0.000166384,0.0214635 0.000166384,0.0278337l0 0.128805c0,0.013073 0,0.0276673 -0.000166384,0.043759 -0.000166384,0.0161155 -0.000356537,0.0328727 -0.000522921,0.0501529 -0.000166384,0.0174465 -0.000499152,0.0343702 -0.000665536,0.0511512 -0.000166384,0.0165909 -0.000332768,0.0321834 -0.000499152,0.0462785 0,0.0142615 -0.000166384,0.0261698 -0.000166384,0.0360578 0.000166384,0.00789135 -0.000499152,0.0154262 -0.00185399,0.0224618 -0.00149746,0.00722582 -0.00418337,0.0130968 -0.00820035,0.0177793 -0.00420714,0.0045399 -0.0102445,0.00689305 -0.0181121,0.00705943l-0.0523396 0c-0.0038506,0 -0.00653651,0.000499152 -0.00803397,0.00183022 -0.00135484,0.00118846 -0.00202038,0.00318506 -0.00202038,0.00620374l0 0.0231511c0,0.00251953 0.000665536,0.00470629 0.00202038,0.00637013 0.00149746,0.00168761 0.00418337,0.00268591 0.00803397,0.00268591 0.00487267,0 0.01091,-0.000166384 0.0179457,-0.000499152 0.00705943,-0.000332768 0.0161155,-0.000665536 0.0271681,-0.00102207 0.01091,-0.000332768 0.0250051,-0.000665536 0.0417624,-0.000998304 0.0169474,-0.000332768 0.037579,-0.000499152 0.0620612,-0.000499152 0.0273345,0 0.0497963,0.000332768 0.0675756,0.00083192 0.0177793,0.000499152 0.0320408,0.000855689 0.0425943,0.00135484 0.0105773,0.000499152 0.0187776,0.00083192 0.0246486,0.00083192 0.00404075,0 0.0067029,-0.000998304 0.00805774,-0.0028523 0.00149746,-0.00166384 0.00218676,-0.00418337 0.00202038,-0.00720205l0 -0.0231511c0.000166384,-0.00251953 -0.000522921,-0.00434975 -0.00202038,-0.00537182 -0.00135484,-0.00116469 -0.00401698,-0.00166384 -0.00805774,-0.00166384l-0.0362242 0c-0.0110526,0.000166384 -0.0194431,-0.00251953 -0.0249814,-0.00805774 -0.00570459,-0.00537182 -0.00872327,-0.0140951 -0.00922242,-0.0261698 -0.000332768,-0.0140713 -0.00083192,-0.0294975 -0.00116469,-0.0462785 -0.000356537,-0.016781 -0.000855689,-0.0340374 -0.00118846,-0.0514839 -0.000332768,-0.0176129 -0.000499152,-0.0345365 -0.00083192,-0.050652 -0.000332768,-0.0162581 -0.000499152,-0.0306859 -0.000665536,-0.0435926 -0.000166384,-0.0127403 -0.000166384,-0.0229848 -0.000166384,-0.0303532l0 -0.0432836c-0.000166384,-0.00451614 0.00083192,-0.00786758 0.0028523,-0.00988796 0.00199661,-0.00218676 0.00584721,-0.00318506 0.011219,-0.00318506l0.328038 0z"/>
  <path id="12" class="fil7" d="M6.60789 11.8089c0.00387437,-0.000332768 0.00789135,-0.000665536 0.0124075,-0.00102207 0.00437352,-0.000332768 0.0083905,-0.000499152 0.0120747,-0.000665536 0.00370798,-0.000166384 0.00620374,-0.000332768 0.00772497,-0.000332768 0.0139287,0.000166384 0.0261698,0.0028523 0.0367233,0.0083905 0.0104109,0.00537182 0.0199661,0.0127403 0.0284992,0.0221291 0.00872327,0.00938881 0.0171138,0.0199661 0.0253379,0.0318744 0.00418337,0.00570459 0.00872327,0.0124075 0.0139049,0.0202751 0.00503906,0.00789135 0.0102445,0.0161155 0.0156163,0.024506 0.00518167,0.00836673 0.0100543,0.0162581 0.0144041,0.0236265 0.00437352,0.0073922 0.00789135,0.0134296 0.0104109,0.0181121 0.00235314,0.00437352 0.00637013,0.0112428 0.011742,0.0211308 0.00537182,0.00974534 0.0114092,0.0206316 0.0181121,0.0327063 0.0067029,0.0120747 0.0134058,0.0238167 0.0197759,0.0350595 0.00653651,0.0112428 0.0120747,0.0204652 0.016781,0.0278337 0.00451614,0.00720205 0.00938881,0.0145942 0.0145942,0.0222954 0.00534805,0.00755858 0.0105535,0.0145942 0.0157589,0.020798 0.00520544,0.00637013 0.00988796,0.0110764 0.0139049,0.0142615 0.00755858,-0.000332768 0.0164482,-0.00083192 0.0265026,-0.00116469 0.0102445,-0.000522921 0.0206316,-0.00102207 0.0315416,-0.00135484 0.0107199,-0.000332768 0.0209644,-0.000499152 0.0305196,-0.000499152 0.0212971,0 0.0389101,0.000332768 0.0524822,0.00083192 0.0135959,0.000499152 0.0239831,0.000855689 0.0313753,0.00135484 0.00720205,0.000499152 0.0122411,0.00083192 0.0147369,0.00083192 0.00301868,0 0.00503906,-0.00083192 0.0063939,-0.00235314 0.00116469,-0.00166384 0.00166384,-0.00418337 0.00166384,-0.0077012l0 -0.0211308c0,-0.00202038 -0.000499152,-0.00370798 -0.00166384,-0.00503906 -0.00135484,-0.00133107 -0.00337522,-0.00202038 -0.0063939,-0.00202038 -0.0124075,0.000332768 -0.024815,-0.00083192 -0.0375552,-0.00318506 -0.0127403,-0.00232937 -0.0239831,-0.0077012 -0.033871,-0.0159253 -0.00318506,-0.00301868 -0.00789135,-0.00855689 -0.0140951,-0.0164245 -0.00620374,-0.00789135 -0.0132394,-0.0169474 -0.020798,-0.0271681 -0.00753481,-0.0102445 -0.0150934,-0.0202988 -0.0222954,-0.0305433 -0.00722582,-0.0100543 -0.0134296,-0.0187776 -0.0186112,-0.026146 -0.00503906,-0.0073922 -0.0083905,-0.0122411 -0.00974534,-0.0144279 -0.00166384,-0.00268591 -0.00518167,-0.00789135 -0.0105535,-0.0159253 -0.00520544,-0.00789135 -0.0114092,-0.0171138 -0.0184448,-0.0278337 -0.00703566,-0.0107436 -0.0142615,-0.0214873 -0.0214635,-0.0323736 -0.0073922,-0.0107436 -0.0137623,-0.0204652 -0.0196333,-0.0288557 -0.00570459,-0.00836673 -0.00988796,-0.0144041 -0.0124075,-0.0177793 -0.00686928,-0.00922242 -0.0152598,-0.0179457 -0.024815,-0.026146 -0.00972157,-0.00822412 -0.0216299,-0.014927 -0.0355586,-0.0201325l0 -0.00401698c0.0372462,-0.00587098 0.0697624,-0.0161155 0.0977862,-0.0310187 0.028,-0.014927 0.0497963,-0.035725 0.0653889,-0.0627267 0.0157589,-0.0270017 0.0236503,-0.0615621 0.0239831,-0.103467 0,-0.0129304 -0.00202038,-0.025837 -0.00603736,-0.0390765 -0.00401698,-0.0132632 -0.0100543,-0.0261698 -0.0181121,-0.0385773 -0.00805774,-0.0125739 -0.0181121,-0.0243158 -0.0301868,-0.0350595 -0.0134058,-0.0122411 -0.0291885,-0.022961 -0.047467,-0.0325399 -0.0182785,-0.00955519 -0.0387199,-0.0169236 -0.0613719,-0.0224618 -0.0226282,-0.00553821 -0.047467,-0.00822412 -0.0742785,-0.0083905 -0.00772497,0 -0.0188014,0.000166384 -0.0327063,0.000499152 -0.0140951,0.000356537 -0.029854,0.000689305 -0.0469678,0.00102207 -0.0172802,0.000332768 -0.0345365,0.000665536 -0.0519831,0.000998304 -0.0172802,0.000332768 -0.0330391,0.000499152 -0.047467,0.000499152 -0.0325162,0 -0.0585196,-0.000332768 -0.0779865,-0.00083192 -0.0194431,-0.000499152 -0.0337046,-0.000998304 -0.0429271,-0.00133107 -0.00922242,-0.000522921 -0.0147606,-0.000855689 -0.0169236,-0.000855689 -0.00251953,0 -0.00437352,0.000499152 -0.00537182,0.00168761 -0.00118846,0.000998304 -0.00168761,0.0028523 -0.00168761,0.00537182l0 0.0271681c0,0.00199661 0.000499152,0.00351783 0.00168761,0.00451614 0.000998304,0.000998304 0.0028523,0.00152122 0.00537182,0.00152122l0.0392428 0c0.00922242,0 0.0169236,0.00401698 0.022961,0.0122411 0.00587098,0.00836673 0.00905604,0.0209644 0.00922242,0.0380544l0 0.264646c0,0.0471104 0,0.0947438 -0.000166384,0.142543 -0.000332768,0.0479661 -0.00083192,0.0970969 -0.00183022,0.14725 0,0.00888966 -0.00168761,0.0159253 -0.00503906,0.0206316 -0.00318506,0.0048489 -0.00772497,0.00820035 -0.0134058,0.0100543 -0.00570459,0.00166384 -0.0124313,0.00268591 -0.0197997,0.00251953l-0.0342038 0c-0.00202038,0 -0.0035416,0.000665536 -0.0045399,0.00216299 -0.000998304,0.00135484 -0.00149746,0.00337522 -0.00149746,0.00587098l0 0.0231511c0,0.00301868 0.000499152,0.00520544 0.00183022,0.0067029 0.00118846,0.00152122 0.00318506,0.00235314 0.00620374,0.00235314 0.00235314,0 0.00603736,-0.000166384 0.0110764,-0.000499152 0.00520544,-0.000332768 0.0125739,-0.000665536 0.0221291,-0.00102207 0.00974534,-0.000332768 0.022652,-0.000665536 0.0387437,-0.000998304 0.0160917,-0.000332768 0.0363905,-0.000499152 0.0608727,-0.000499152 0.0260034,0 0.0473006,0.000166384 0.0638914,0.000499152 0.0166146,0.000332768 0.0296876,0.000665536 0.0394092,0.000998304 0.00974534,0.000356537 0.0171138,0.000689305 0.0221528,0.00102207 0.00520544,0.000332768 0.00938881,0.000499152 0.0124075,0.000499152 0.00401698,0 0.00686928,-0.000499152 0.00855689,-0.00185399 0.00166384,-0.00133107 0.00251953,-0.00368422 0.00251953,-0.00720205l0 -0.0241494c0,-0.00202038 -0.000522921,-0.00368422 -0.00168761,-0.00503906 -0.00133107,-0.00133107 -0.00335145,-0.00199661 -0.00637013,-0.00199661l-0.0503193 0c-0.00537182,-0.000166384 -0.00972157,-0.00185399 -0.0132394,-0.00537182 -0.00351783,-0.00351783 -0.00637013,-0.00822412 -0.0083905,-0.0140951 -0.00202038,-0.00570459 -0.00351783,-0.0119083 -0.00451614,-0.0187776 -0.000356537,-0.00318506 -0.000855689,-0.00972157 -0.00118846,-0.0196095 -0.000332768,-0.00974534 -0.00083192,-0.0216537 -0.00116469,-0.035725 -0.000332768,-0.0140951 -0.000499152,-0.0290221 -0.00083192,-0.044781 -0.000356537,-0.0159253 -0.000522921,-0.0315416 -0.000689305,-0.0468014 -0.000166384,-0.0152598 -0.000166384,-0.0289983 -0.000166384,-0.0412394l0 -0.0543362zm0.00404075 -0.326017c0,-0.00620374 0.000998304,-0.0119083 0.00301868,-0.0172802 0.00199661,-0.00537182 0.00501529,-0.00922242 0.00905604,-0.0119083 0.00401698,-0.00251953 0.00905604,-0.00418337 0.0150934,-0.0048489 0.00603736,-0.000855689 0.013073,-0.00135484 0.0211308,-0.00118846 0.0253141,-0.000166384 0.0491308,0.00301868 0.071759,0.00955519 0.0224856,0.00656028 0.0427607,0.0177793 0.0610629,0.0337284 0.00853312,0.0077012 0.0160917,0.0175892 0.0226282,0.0291647 0.0067029,0.011742 0.0119083,0.0246486 0.0157589,0.0389101 0.00387437,0.0142615 0.00587098,0.0290221 0.00587098,0.0446147 0.000166384,0.00955519 -0.00133107,0.0214635 -0.00451614,0.035725 -0.00318506,0.0144041 -0.00888966,0.0293311 -0.016781,0.0451138 -0.00805774,0.0159253 -0.0191104,0.0306859 -0.0333719,0.0445909 -0.0144279,0.0139287 -0.0325399,0.0253379 -0.0545026,0.0340612 -0.0221291,0.00872327 -0.048798,0.0132394 -0.0799831,0.0135722 -0.00603736,0 -0.0120747,-0.000499152 -0.0184686,-0.00133107 -0.00620374,-0.000689305 -0.0127403,-0.00168761 -0.0197759,-0.00268591l0.00202038 -0.289793z"/>
  <path id="123" class="fil7" d="M7.48934 11.3993c-0.0217963,-0.000166384 -0.0446147,0.00135484 -0.0684313,0.00487267 -0.0238167,0.00335145 -0.0481325,0.00955519 -0.0726147,0.0187776 -0.0246486,0.00905604 -0.0491308,0.0221291 -0.0731138,0.0390765 -0.0241494,0.0171138 -0.0473006,0.0390765 -0.069596,0.0660782 -0.024815,0.0313515 -0.0441155,0.062394 -0.0575213,0.0929135 -0.0134296,0.0303532 -0.0228184,0.0590188 -0.0278337,0.0858541 -0.00503906,0.0268353 -0.0073922,0.0504856 -0.00722582,0.0707607 0.000166384,0.0362242 0.0045399,0.0701189 0.0129304,0.101637 0.00836673,0.0313515 0.0196095,0.0598744 0.0337046,0.085355 0.0140713,0.0256707 0.029854,0.0477997 0.0471104,0.066411 0.0174465,0.0188014 0.0350595,0.0335382 0.0531715,0.0444483 0.0270017,0.0160917 0.0541699,0.0288557 0.081338,0.0387437 0.0271681,0.00972157 0.0531478,0.0167572 0.0781529,0.0211308 0.0249814,0.00451614 0.0476096,0.00653651 0.0679084,0.00653651 0.0501529,-0.000332768 0.0937455,-0.0067029 0.130992,-0.0191104 0.0373888,-0.0125739 0.0699288,-0.0295213 0.0975961,-0.0509848 0.0276673,-0.0214635 0.0521495,-0.045613 0.0732802,-0.0727811 0.0181121,-0.0229848 0.0325399,-0.046635 0.0434262,-0.0712836 0.01091,-0.0246486 0.0189678,-0.0494636 0.0238167,-0.0748015 0.00487267,-0.0253141 0.0073922,-0.0504619 0.00722582,-0.0753006 -0.000166384,-0.0342038 -0.00368422,-0.0660544 -0.0107436,-0.0955757 -0.00703566,-0.0296876 -0.0169236,-0.0568558 -0.0293549,-0.0816707 -0.0125739,-0.024815 -0.026978,-0.0473006 -0.0435926,-0.067433 -0.0164245,-0.0201087 -0.0342038,-0.037888 -0.0531715,-0.0531478 -0.0275009,-0.0219627 -0.054669,-0.0387437 -0.0816707,-0.0504856 -0.0270017,-0.0115756 -0.0534805,-0.0196095 -0.079484,-0.0239831 -0.0259797,-0.00418337 -0.0514839,-0.00620374 -0.0762989,-0.00603736zm-0.00401698 0.0442819c0.0196095,0 0.0404075,0.00487267 0.062703,0.0147606 0.0221528,0.00972157 0.0439491,0.0241494 0.0654127,0.0430934 0.0216299,0.0191104 0.0410968,0.0425943 0.0588524,0.0704279 0.0176129,0.027691 0.031708,0.0597081 0.0422615,0.0957658 0.0105773,0.0362242 0.0161155,0.0761325 0.0162819,0.120082 0.000166384,0.0122411 -0.000665536,0.0268353 -0.00235314,0.043759 -0.00168761,0.0169474 -0.00451614,0.0352259 -0.00872327,0.054669 -0.00418337,0.0194669 -0.0100543,0.0390765 -0.0176129,0.0590425 -0.00753481,0.0199423 -0.01709,0.0389101 -0.0286656,0.0570221 -0.011742,0.0182785 -0.025837,0.0345365 -0.0424279,0.048798 -0.016781,0.0142615 -0.0362242,0.0256469 -0.0585434,0.033871 -0.0224618,0.0083905 -0.0481325,0.0125739 -0.0771308,0.0127403 -0.0142615,0 -0.0301868,-0.00268591 -0.047467,-0.00803397 -0.0174465,-0.00537182 -0.0353922,-0.0139287 -0.0538371,-0.0256707 -0.0182785,-0.0115756 -0.0360578,-0.026669 -0.0531478,-0.0452802 -0.0171138,-0.0186112 -0.0325399,-0.0409067 -0.0461359,-0.0670765 -0.0137386,-0.0261698 -0.0246486,-0.056523 -0.0326826,-0.0910595 -0.00789135,-0.0345603 -0.0120747,-0.0734466 -0.0122411,-0.117063 0,-0.0202988 0.00183022,-0.041596 0.00551444,-0.063725 0.00370798,-0.0221291 0.00922242,-0.0441155 0.016781,-0.0659118 0.00736843,-0.0219627 0.016781,-0.0425943 0.0281664,-0.0620374 0.0114092,-0.0196333 0.0248387,-0.0369135 0.0400985,-0.0518167 0.01709,-0.0164482 0.0335382,-0.0286893 0.0489644,-0.0369135 0.0154262,-0.00803397 0.0295213,-0.0135722 0.0424279,-0.0162581 0.0127403,-0.00268591 0.0236503,-0.0038506 0.0328727,-0.00368422 0.00922242,0 0.0160917,0.000166384 0.0206316,0.000499152z"/>
  <path id="1234" class="fil7" d="M8.20275 11.7082c0,0.00320883 0,0.0114092 0,0.0246724 0,0.013073 0,0.029854 0,0.0497963 -0.000166384,0.0199661 -0.000166384,0.0417624 -0.000166384,0.0650799 -0.000190153,0.0234601 -0.000190153,0.046944 -0.000356537,0.0705943 -0.000166384,0.0236503 -0.000332768,0.045613 -0.000499152,0.0659118 -0.000332768,0.0204652 -0.000499152,0.0375552 -0.00083192,0.0513176 -0.000332768,0.0139049 -0.000665536,0.0227946 -0.00116469,0.0268353 -0.000522921,0.0077012 -0.00370798,0.0140713 -0.00941258,0.0192768 -0.00568082,0.00503906 -0.0137386,0.00772497 -0.0237929,0.00789135l-0.0573549 0c-0.00202038,0 -0.00370798,0.000499152 -0.00503906,0.00183022 -0.00135484,0.00118846 -0.00202038,0.00318506 -0.00202038,0.00620374l0 0.0231511c0,0.00351783 0.000499152,0.00587098 0.00185399,0.00720205 0.00116469,0.00135484 0.00318506,0.00185399 0.00620374,0.00185399 0.00451614,0 0.0127403,-0.000332768 0.0246486,-0.00083192 0.0120747,-0.000499152 0.0288557,-0.000855689 0.050652,-0.00135484 0.0217963,-0.000499152 0.0496299,-0.00083192 0.0836911,-0.00083192 0.026978,0 0.0496299,0.000166384 0.0680748,0.000499152 0.0182785,0.000332768 0.0330391,0.000665536 0.0444483,0.000998304 0.0112428,0.000356537 0.0199423,0.000689305 0.0258133,0.00102207 0.00603736,0.000332768 0.0102445,0.000499152 0.0125739,0.000499152 0.00404075,0 0.00672666,-0.000998304 0.00805774,-0.0028523 0.00152122,-0.00166384 0.00218676,-0.00418337 0.00202038,-0.00720205l0 -0.0211308c0,-0.00251953 -0.000499152,-0.00470629 -0.00152122,-0.00637013 -0.000998304,-0.00168761 -0.00251953,-0.00268591 -0.00451614,-0.00268591l-0.0583532 0c-0.00805774,0.000166384 -0.0145942,-0.00251953 -0.0196333,-0.00805774 -0.00503906,-0.00553821 -0.00872327,-0.0154262 -0.0110764,-0.0295213 -0.00232937,-0.0140713 -0.00351783,-0.0337046 -0.00351783,-0.0590188l0 -0.536327 0.0281902 0c0.00736843,0 0.0164245,0 0.0273345,0.000332768 0.0107199,0.000166384 0.0222954,0.000689305 0.0347029,0.00135484 0.0124075,0.000665536 0.0246486,0.00166384 0.0365569,0.00301868 0.0120747,0.00133107 0.0229848,0.00318506 0.0328727,0.00537182 0.00988796,0.00216299 0.0176129,0.0048489 0.0234839,0.00803397 0.00720205,0.00520544 0.0145942,0.0125739 0.0222954,0.0221528 0.00772497,0.00955519 0.0154262,0.0199423 0.0228184,0.0311851 0.00736843,0.0112428 0.0139049,0.0221291 0.0199423,0.0327063 0.00603736,0.0105535 0.01091,0.0194431 0.0144279,0.026669 0.00152122,0.00301868 0.0028523,0.00518167 0.00418337,0.0067029 0.00135484,0.00133107 0.0028523,0.00183022 0.00487267,0.00133107l0.0201325 -0.00703566c0.00149746,-0.000499152 0.00268591,-0.00135484 0.00351783,-0.00268591 0.00083192,-0.00133107 0.000998304,-0.00351783 0.000499152,-0.00637013 -0.00166384,-0.00988796 -0.00368422,-0.0221291 -0.00603736,-0.0367233 -0.00235314,-0.0145942 -0.00487267,-0.0300204 -0.00753481,-0.0463023 -0.00251953,-0.0162581 -0.00503906,-0.0318506 -0.0073922,-0.046944 -0.00235314,-0.0150934 -0.00434975,-0.028 -0.00603736,-0.0390765 -0.00166384,-0.01091 -0.00268591,-0.0182785 -0.00318506,-0.0221291 -0.00083192,-0.00603736 -0.00202038,-0.0102445 -0.00351783,-0.0125976 -0.00135484,-0.00249576 -0.00351783,-0.00368422 -0.00653651,-0.00351783 -0.0028523,0 -0.00570459,0.00102207 -0.00822412,0.00268591 -0.00268591,0.00185399 -0.00603736,0.00437352 -0.00988796,0.0073922 -0.00537182,0.0038506 -0.0124075,0.00753481 -0.0212971,0.0113854 -0.00888966,0.00387437 -0.0179457,0.00722582 -0.0271681,0.00991173 -0.00938881,0.0028523 -0.0172802,0.00434975 -0.0239831,0.0048489 -0.0114092,0.000499152 -0.0231511,0.00118846 -0.0350595,0.00185399 -0.0120747,0.000665536 -0.0254805,0.00133107 -0.0404075,0.00183022 -0.014927,0.000689305 -0.0323736,0.00118846 -0.052506,0.00168761 -0.0199423,0.000499152 -0.043759,0.000665536 -0.0712599,0.000665536l-0.0543362 0c-0.0244822,0 -0.0459457,-0.000166384 -0.0643906,-0.000665536 -0.018635,-0.000499152 -0.0350595,-0.000998304 -0.0498201,-0.00168761 -0.0145942,-0.000499152 -0.0284992,-0.00116469 -0.0414296,-0.00183022 -0.0129066,-0.000665536 -0.026146,-0.00135484 -0.0395756,-0.00185399 -0.0139049,-0.000332768 -0.0263124,-0.00216299 -0.0372225,-0.00587098 -0.01091,-0.00368422 -0.0212971,-0.0103871 -0.0311851,-0.0202751 -0.0028523,-0.00301868 -0.00553821,-0.00553821 -0.00805774,-0.0073922 -0.00235314,-0.00166384 -0.00503906,-0.00268591 -0.00805774,-0.00268591 -0.00216299,-0.000166384 -0.00434975,0.00118846 -0.0067029,0.00368422 -0.00251953,0.00268591 -0.00418337,0.00755858 -0.00537182,0.0144279 -0.000665536,0.00251953 -0.00216299,0.00789135 -0.00418337,0.0159491 -0.00218676,0.00803397 -0.00487267,0.0181121 -0.00789135,0.0298303 -0.00301868,0.011742 -0.00637013,0.0243158 -0.00972157,0.0377454 -0.00351783,0.0134058 -0.00703566,0.026669 -0.0103871,0.039742 -0.00335145,0.013073 -0.00656028,0.0249814 -0.00922242,0.0358914 -0.0028523,0.0107199 -0.00520544,0.0194431 -0.00689305,0.0260034 -0.000499152,0.00249576 -0.000499152,0.00451614 0.000166384,0.00620374 0.000522921,0.00149746 0.00185399,0.0028523 0.00387437,0.0038506l0.0201087 0.00703566c0.00251953,0.00083192 0.0045399,0.000665536 0.00637013,-0.00083192 0.00168761,-0.00152122 0.00318506,-0.00351783 0.00470629,-0.00620374 0.00487267,-0.00872327 0.0107436,-0.018944 0.0176129,-0.0303532 0.0067029,-0.0115756 0.0142615,-0.0229848 0.0222954,-0.0345603 0.00805774,-0.0115518 0.0162819,-0.0217963 0.024815,-0.0308523 0.0083905,-0.00888966 0.016781,-0.0152598 0.0248387,-0.018944 0.0107199,-0.00351783 0.0227946,-0.00620374 0.0362242,-0.00822412 0.0134058,-0.00183022 0.0271681,-0.00335145 0.0410731,-0.00418337 0.0137623,-0.000855689 0.0268353,-0.00135484 0.0390765,-0.00152122 0.0120747,-0.000166384 0.0223192,-0.000166384 0.0305196,-0.000166384l0.0281902 0 0 0.251549z"/>
  <path id="12345" class="fil7" d="M8.95942 11.7082c0,0.00320883 0,0.0114092 0,0.0246724 0,0.013073 0,0.029854 0,0.0497963 -0.000166384,0.0199661 -0.000166384,0.0417624 -0.000166384,0.0650799 -0.000190153,0.0234601 -0.000190153,0.046944 -0.000356537,0.0705943 -0.000166384,0.0236503 -0.000332768,0.045613 -0.000499152,0.0659118 -0.000332768,0.0204652 -0.000499152,0.0375552 -0.00083192,0.0513176 -0.000332768,0.0139049 -0.000665536,0.0227946 -0.00116469,0.0268353 -0.000522921,0.0077012 -0.00370798,0.0140713 -0.00941258,0.0192768 -0.00568082,0.00503906 -0.0137386,0.00772497 -0.0237929,0.00789135l-0.0573549 0c-0.00202038,0 -0.00370798,0.000499152 -0.00503906,0.00183022 -0.00135484,0.00118846 -0.00202038,0.00318506 -0.00202038,0.00620374l0 0.0231511c0,0.00351783 0.000499152,0.00587098 0.00185399,0.00720205 0.00116469,0.00135484 0.00318506,0.00185399 0.00620374,0.00185399 0.00451614,0 0.0127403,-0.000332768 0.0246486,-0.00083192 0.0120747,-0.000499152 0.0288557,-0.000855689 0.050652,-0.00135484 0.0217963,-0.000499152 0.0496299,-0.00083192 0.0836911,-0.00083192 0.026978,0 0.0496299,0.000166384 0.0680748,0.000499152 0.0182785,0.000332768 0.0330391,0.000665536 0.0444483,0.000998304 0.0112428,0.000356537 0.0199423,0.000689305 0.0258133,0.00102207 0.00603736,0.000332768 0.0102445,0.000499152 0.0125739,0.000499152 0.00404075,0 0.00672666,-0.000998304 0.00805774,-0.0028523 0.00152122,-0.00166384 0.00218676,-0.00418337 0.00202038,-0.00720205l0 -0.0211308c0,-0.00251953 -0.000499152,-0.00470629 -0.00152122,-0.00637013 -0.000998304,-0.00168761 -0.00251953,-0.00268591 -0.00451614,-0.00268591l-0.0583532 0c-0.00805774,0.000166384 -0.0145942,-0.00251953 -0.0196333,-0.00805774 -0.00503906,-0.00553821 -0.00872327,-0.0154262 -0.0110764,-0.0295213 -0.00232937,-0.0140713 -0.00351783,-0.0337046 -0.00351783,-0.0590188l0 -0.536327 0.0281902 0c0.00736843,0 0.0164245,0 0.0273345,0.000332768 0.0107199,0.000166384 0.0222954,0.000689305 0.0347029,0.00135484 0.0124075,0.000665536 0.0246486,0.00166384 0.0365569,0.00301868 0.0120747,0.00133107 0.0229848,0.00318506 0.0328727,0.00537182 0.00988796,0.00216299 0.0176129,0.0048489 0.0234839,0.00803397 0.00720205,0.00520544 0.0145942,0.0125739 0.0222954,0.0221528 0.00772497,0.00955519 0.0154262,0.0199423 0.0228184,0.0311851 0.00736843,0.0112428 0.0139049,0.0221291 0.0199423,0.0327063 0.00603736,0.0105535 0.01091,0.0194431 0.0144279,0.026669 0.00152122,0.00301868 0.0028523,0.00518167 0.00418337,0.0067029 0.00135484,0.00133107 0.0028523,0.00183022 0.00487267,0.00133107l0.0201325 -0.00703566c0.00149746,-0.000499152 0.00268591,-0.00135484 0.00351783,-0.00268591 0.00083192,-0.00133107 0.000998304,-0.00351783 0.000499152,-0.00637013 -0.00166384,-0.00988796 -0.00368422,-0.0221291 -0.00603736,-0.0367233 -0.00235314,-0.0145942 -0.00487267,-0.0300204 -0.00753481,-0.0463023 -0.00251953,-0.0162581 -0.00503906,-0.0318506 -0.0073922,-0.046944 -0.00235314,-0.0150934 -0.00434975,-0.028 -0.00603736,-0.0390765 -0.00166384,-0.01091 -0.00268591,-0.0182785 -0.00318506,-0.0221291 -0.00083192,-0.00603736 -0.00202038,-0.0102445 -0.00351783,-0.0125976 -0.00135484,-0.00249576 -0.00351783,-0.00368422 -0.00653651,-0.00351783 -0.0028523,0 -0.00570459,0.00102207 -0.00822412,0.00268591 -0.00268591,0.00185399 -0.00603736,0.00437352 -0.00988796,0.0073922 -0.00537182,0.0038506 -0.0124075,0.00753481 -0.0212971,0.0113854 -0.00888966,0.00387437 -0.0179457,0.00722582 -0.0271681,0.00991173 -0.00938881,0.0028523 -0.0172802,0.00434975 -0.0239831,0.0048489 -0.0114092,0.000499152 -0.0231511,0.00118846 -0.0350595,0.00185399 -0.0120747,0.000665536 -0.0254805,0.00133107 -0.0404075,0.00183022 -0.014927,0.000689305 -0.0323736,0.00118846 -0.052506,0.00168761 -0.0199423,0.000499152 -0.043759,0.000665536 -0.0712599,0.000665536l-0.0543362 0c-0.0244822,0 -0.0459457,-0.000166384 -0.0643906,-0.000665536 -0.018635,-0.000499152 -0.0350595,-0.000998304 -0.0498201,-0.00168761 -0.0145942,-0.000499152 -0.0284992,-0.00116469 -0.0414296,-0.00183022 -0.0129066,-0.000665536 -0.026146,-0.00135484 -0.0395756,-0.00185399 -0.0139049,-0.000332768 -0.0263124,-0.00216299 -0.0372225,-0.00587098 -0.01091,-0.00368422 -0.0212971,-0.0103871 -0.0311851,-0.0202751 -0.0028523,-0.00301868 -0.00553821,-0.00553821 -0.00805774,-0.0073922 -0.00235314,-0.00166384 -0.00503906,-0.00268591 -0.00805774,-0.00268591 -0.00216299,-0.000166384 -0.00434975,0.00118846 -0.0067029,0.00368422 -0.00251953,0.00268591 -0.00418337,0.00755858 -0.00537182,0.0144279 -0.000665536,0.00251953 -0.00216299,0.00789135 -0.00418337,0.0159491 -0.00218676,0.00803397 -0.00487267,0.0181121 -0.00789135,0.0298303 -0.00301868,0.011742 -0.00637013,0.0243158 -0.00972157,0.0377454 -0.00351783,0.0134058 -0.00703566,0.026669 -0.0103871,0.039742 -0.00335145,0.013073 -0.00656028,0.0249814 -0.00922242,0.0358914 -0.0028523,0.0107199 -0.00520544,0.0194431 -0.00689305,0.0260034 -0.000499152,0.00249576 -0.000499152,0.00451614 0.000166384,0.00620374 0.000522921,0.00149746 0.00185399,0.0028523 0.00387437,0.0038506l0.0201087 0.00703566c0.00251953,0.00083192 0.0045399,0.000665536 0.00637013,-0.00083192 0.00168761,-0.00152122 0.00318506,-0.00351783 0.00470629,-0.00620374 0.00487267,-0.00872327 0.0107436,-0.018944 0.0176129,-0.0303532 0.0067029,-0.0115756 0.0142615,-0.0229848 0.0222954,-0.0345603 0.00805774,-0.0115518 0.0162819,-0.0217963 0.024815,-0.0308523 0.0083905,-0.00888966 0.016781,-0.0152598 0.0248387,-0.018944 0.0107199,-0.00351783 0.0227946,-0.00620374 0.0362242,-0.00822412 0.0134058,-0.00183022 0.0271681,-0.00335145 0.0410731,-0.00418337 0.0137623,-0.000855689 0.0268353,-0.00135484 0.0390765,-0.00152122 0.0120747,-0.000166384 0.0223192,-0.000166384 0.0305196,-0.000166384l0.0281902 0 0 0.251549z"/>
  <path id="123456" class="fil7" d="M10.0381 11.9135c-0.0028523,-0.000998304 -0.00520544,-0.000998304 -0.00686928,-0.000332768 -0.00152122,0.000855689 -0.00337522,0.00235314 -0.00520544,0.00437352 -0.0028523,0.00786758 -0.00755858,0.0182785 -0.0140951,0.0313515 -0.00637013,0.0129066 -0.0140951,0.0268353 -0.0233175,0.041596 -0.00905604,0.014927 -0.018944,0.0291885 -0.0296639,0.0427607 -0.0107436,0.0137623 -0.0219864,0.0251477 -0.0333719,0.0345365 -0.0115756,0.00941258 -0.0229848,0.014927 -0.0343939,0.016781 -0.0102207,0.00116469 -0.0219627,0.00218676 -0.0355586,0.0028523 -0.0134058,0.00083192 -0.0276673,0.00133107 -0.0429271,0.00149746 -0.0152598,0.000356537 -0.0305196,0.000522921 -0.0461121,0.000689305 -0.0154262,0 -0.0301868,0 -0.0444483,0l-0.0563328 0c-0.000522921,-0.00637013 -0.00102207,-0.0157827 -0.00152122,-0.0281902 -0.000332768,-0.0122411 -0.00083192,-0.0266452 -0.000998304,-0.0427607 -0.000332768,-0.0162581 -0.000499152,-0.0333719 -0.000855689,-0.0511512 -0.000166384,-0.0179457 -0.000332768,-0.0355349 -0.000332768,-0.0529814 -0.000166384,-0.0172802 -0.000166384,-0.0333719 -0.000166384,-0.0479661 -0.000166384,-0.0147606 -0.000166384,-0.0270017 -0.000166384,-0.0368897 0,-0.00974534 0,-0.0161155 0,-0.0188014l0 -0.0865196c0,-0.0119083 0.000166384,-0.0255043 0.000332768,-0.0409304 0.000166384,-0.0154262 0.000332768,-0.0315179 0.000689305,-0.0482989 0.000332768,-0.0167572 0.000665536,-0.0333719 0.000998304,-0.0496299 0.000332768,-0.0162819 0.000665536,-0.0311851 0.000998304,-0.0449474 0.000332768,-0.0137623 0.000499152,-0.0251477 0.000665536,-0.0342038 0.000190153,-0.00905604 0.000356537,-0.014927 0.000356537,-0.0174465 -0.000166384,-0.00905604 0.000499152,-0.0162819 0.00216299,-0.0217963 0.00152122,-0.00537182 0.00487267,-0.00938881 0.00974534,-0.0119083 0.00501529,-0.00235314 0.0124075,-0.00351783 0.0222954,-0.00351783l0.0543362 0c0.0038506,-0.000166384 0.00653651,-0.00102207 0.00805774,-0.00251953 0.00133107,-0.00168761 0.00199661,-0.00351783 0.00199661,-0.00553821l0 -0.0231511c0,-0.00251953 -0.000665536,-0.00468252 -0.00199661,-0.00637013 -0.00152122,-0.00166384 -0.00420714,-0.00268591 -0.00805774,-0.00268591 -0.00251953,0 -0.00938881,0.000332768 -0.0206316,0.000855689 -0.0112428,0.000332768 -0.0281664,0.00083192 -0.050652,0.00133107 -0.0224618,0.000499152 -0.0516503,0.00083192 -0.0877081,0.00083192 -0.0306859,0 -0.0556673,-0.000332768 -0.0749678,-0.00083192 -0.0191104,-0.000499152 -0.033871,-0.000998304 -0.0439254,-0.00133107 -0.0100543,-0.000522921 -0.016781,-0.000855689 -0.0199661,-0.000855689 -0.00301868,0 -0.00501529,0.000499152 -0.00620374,0.00168761 -0.00133107,0.00133107 -0.00183022,0.00335145 -0.00183022,0.00637013l0 0.0231511c0,0.00166384 0.000499152,0.00351783 0.00183022,0.00568082 0.00118846,0.00202038 0.00318506,0.00320883 0.00620374,0.00337522l0.0422615 0c0.00855689,0 0.0150934,0.00116469 0.0196333,0.00351783 0.00434975,0.00251953 0.00736843,0.00637013 0.00922242,0.0115756 0.00166384,0.00534805 0.0028523,0.0124075 0.00335145,0.0211308 0.000499152,0.00351783 0.00083192,0.0102207 0.00116469,0.0199423 0.000522921,0.00972157 0.000855689,0.0214635 0.00118846,0.0350595 0.000332768,0.0137386 0.000665536,0.0283328 0.00083192,0.0439254 0.000332768,0.0155926 0.000499152,0.0312089 0.000665536,0.046635 0.000166384,0.0152598 0.000166384,0.0294975 0.000166384,0.0425943l0 0.0563328c0,0.00888966 0,0.0209644 -0.000166384,0.0364143 -0.000166384,0.0152598 -0.000332768,0.0326826 -0.000665536,0.0523159 -0.000166384,0.0194431 -0.000499152,0.039742 -0.000665536,0.0608727 -0.000332768,0.0211308 -0.000665536,0.0417624 -0.00083192,0.061871 -0.000356537,0.0202988 -0.000689305,0.0389101 -0.000855689,0.0558575 -0.000332768,0.0167572 -0.000499152,0.0308523 -0.000665536,0.0419287 0,0.0110526 -0.000166384,0.0179457 -0.000166384,0.020798 0.000166384,0.00451614 -0.00083192,0.00872327 -0.0028523,0.0129066 -0.00218676,0.00401698 -0.00620374,0.00736843 -0.0124075,0.0100543 -0.00603736,0.00268591 -0.0150934,0.00420714 -0.0270017,0.00420714l-0.0402411 0c-0.0028523,0 -0.00470629,0.000499152 -0.00520544,0.00183022 -0.000665536,0.00118846 -0.000998304,0.00318506 -0.00083192,0.00620374l0 0.0231511c-0.000166384,0.00351783 0.000166384,0.00587098 0.000998304,0.00720205 0.00083192,0.00135484 0.00318506,0.00185399 0.00703566,0.00185399 0.00387437,0 0.01091,-0.000332768 0.0212971,-0.00083192 0.0102445,-0.000499152 0.0250051,-0.000855689 0.0439491,-0.00135484 0.0191104,-0.000499152 0.0435926,-0.00083192 0.073613,-0.00083192 0.014927,0 0.0328727,0 0.0541699,0.000166384 0.0211308,0 0.0442819,0.000166384 0.0690969,0.000332768 0.0249814,0 0.0503193,0.000166384 0.0762989,0.000332768 0.0260034,0.000166384 0.0511512,0.000332768 0.0756334,0.000499152 0.0243158,0.000356537 0.0468014,0.000522921 0.0669101,0.000689305 0.0202988,0.000166384 0.0370798,0.000332768 0.0504856,0.000499152 0.0134296,0.000166384 0.0221528,0.000332768 0.0260034,0.000499152 0.000998304,-0.00470629 0.0028523,-0.0127403 0.00553821,-0.0238167 0.00268591,-0.0112428 0.00570459,-0.0241494 0.00922242,-0.0389101 0.00368422,-0.0145942 0.00736843,-0.029854 0.0110526,-0.0452802 0.00387437,-0.0155926 0.00755858,-0.0301868 0.0110764,-0.0435926 0.00335145,-0.0135959 0.00637013,-0.024815 0.00872327,-0.0335382 0.00235314,-0.00888966 0.00401698,-0.0139287 0.00468252,-0.0150934 0,-0.00301868 0,-0.00520544 -0.000332768,-0.00653651 -0.000166384,-0.00152122 -0.000665536,-0.00268591 -0.00166384,-0.0035416l-0.0181121 -0.00603736z"/>
  <path id="1234567" class="fil7" d="M10.3097 11.7746c0.0108863,0 0.0231274,0.000190153 0.0365569,0.000689305 0.0134058,0.000499152 0.0270017,0.00116469 0.0409067,0.00199661 0.0139287,0.000855689 0.0270017,0.00202038 0.0392428,0.00335145 0.0112428,0.00118846 0.0212971,0.00487267 0.0300204,0.0112428 0.00888966,0.00653651 0.0155926,0.0147606 0.0202988,0.0249814 0.00166384,0.00420714 0.00351783,0.00905604 0.00553821,0.0147606 0.00199661,0.00587098 0.0038506,0.011742 0.00570459,0.0179457 0.00183022,0.00637013 0.00351783,0.0120747 0.0048489,0.0176129 0.00102207,0.00301868 0.00202038,0.00503906 0.00335145,0.00620374 0.00118846,0.000998304 0.00268591,0.00135484 0.00470629,0.00083192l0.0221291 -0.00401698c0.00301868,-0.000499152 0.00503906,-0.00116469 0.00637013,-0.00202038 0.00118846,-0.000998304 0.00168761,-0.00266214 0.00168761,-0.00501529 -0.000665536,-0.00755858 -0.00152122,-0.0174465 -0.00251953,-0.0296876 -0.00083192,-0.0120747 -0.00168761,-0.0251477 -0.00235314,-0.0394092 -0.00083192,-0.0140951 -0.00116469,-0.028 -0.00116469,-0.041596 0,-0.0067029 0,-0.0154262 0,-0.0258133 0,-0.0104109 0.000166384,-0.0211308 0.000332768,-0.0323736 0,-0.0110764 0.000166384,-0.0212971 0.000499152,-0.0303532 0.000332768,-0.00922242 0.000665536,-0.0159253 0.00118846,-0.0201325 0.000499152,-0.00301868 0,-0.00503906 -0.00118846,-0.00637013 -0.00116469,-0.00116469 -0.0028523,-0.00168761 -0.0048489,-0.00168761l-0.0261698 -0.00199661c-0.00202038,0 -0.0038506,0.000499152 -0.00553821,0.00166384 -0.00149746,0.00135484 -0.00235314,0.00335145 -0.00251953,0.00637013 0,0.00622751 -0.000998304,0.012764 -0.0028523,0.0197997 -0.00166384,0.00703566 -0.0038506,0.0137623 -0.00637013,0.0201325 -0.00251953,0.00653651 -0.00468252,0.0119083 -0.00686928,0.0164245 -0.00587098,0.011742 -0.0122411,0.0202988 -0.0193005,0.0256707 -0.00720205,0.00518167 -0.0160917,0.00872327 -0.026978,0.0105535 -0.00337522,0.00083192 -0.00957896,0.00152122 -0.0188014,0.00202038 -0.00922242,0.000665536 -0.0197759,0.00116469 -0.0316843,0.00166384 -0.0120747,0.000332768 -0.0238167,0.000689305 -0.0352259,0.00102207 -0.0115756,0.000166384 -0.0211308,0.000332768 -0.0289983,0.000332768l0.00199661 -0.290792 0.152954 0.00401698c0.0142615,0.000665536 0.0278337,0.00368422 0.0409067,0.00888966 0.0130968,0.00520544 0.0248387,0.0108863 0.0355586,0.0172802 0.00503906,0.00301868 0.011742,0.00853312 0.0204652,0.0165909 0.00855689,0.00789135 0.0177793,0.0171138 0.0278337,0.0273345 0.00988796,0.0104109 0.0194669,0.0204652 0.0286893,0.0305196 0.00905604,0.0100781 0.0167572,0.0184448 0.022961,0.0255043 0.00620374,0.00703566 0.00972157,0.011219 0.0107436,0.0127403 0.00149746,0.00251953 0.00301868,0.00401698 0.00451614,0.00468252 0.00152122,0.000855689 0.00301868,0.000855689 0.0045399,0.000356537l0.0181121 -0.00805774c0.00199661,-0.000998304 0.00335145,-0.00235314 0.0038506,-0.00401698 0.000499152,-0.00168761 0.000166384,-0.00404075 -0.00083192,-0.00705943 -0.000665536,-0.00183022 -0.00218676,-0.0067029 -0.0045399,-0.0144279 -0.00232937,-0.0077012 -0.00501529,-0.0172564 -0.00836673,-0.0286656 -0.00320883,-0.0112428 -0.00672666,-0.0231511 -0.0102445,-0.035725 -0.00351783,-0.0125739 -0.00703566,-0.0246486 -0.0102207,-0.0360578 -0.00335145,-0.0115756 -0.00603736,-0.0212971 -0.0083905,-0.0295213 -0.00235314,-0.00803397 -0.0038506,-0.0132394 -0.0045399,-0.0155926 -0.000499152,-0.00199661 -0.00133107,-0.00351783 -0.00249576,-0.00451614 -0.00118846,-0.00102207 -0.00301868,-0.00152122 -0.00553821,-0.00152122 -0.00185399,0 -0.00487267,0.000166384 -0.00905604,0.000166384 -0.00437352,0.000166384 -0.00922242,0.000332768 -0.0147606,0.000499152 -0.00553821,0.000190153 -0.01091,0.000356537 -0.0164482,0.000356537 -0.00653651,0 -0.0162581,0 -0.0293311,0.000166384 -0.0130968,0 -0.0283566,0.000166384 -0.0457793,0.000166384 -0.0172802,0.000166384 -0.0358914,0.000332768 -0.0555247,0.000499152 -0.0196095,0.000166384 -0.0390765,0.000166384 -0.058686,0.000332768 -0.0196333,0.000166384 -0.0382445,0.000332768 -0.0555247,0.000499152 -0.0174228,0 -0.0326826,0.000166384 -0.0457793,0.000166384 -0.013073,0.000166384 -0.0227946,0.000166384 -0.0293311,0.000166384l-0.0281902 0c-0.0273345,0.000332768 -0.0499627,0.000166384 -0.0682412,-0.000332768 -0.0182785,-0.000499152 -0.0330391,-0.000998304 -0.0446147,-0.00166384 -0.0114092,-0.000689305 -0.020798,-0.00102207 -0.028,-0.00102207 -0.00251953,0 -0.00404075,0.000499152 -0.00487267,0.00168761 -0.00083192,0.000998304 -0.00116469,0.0028523 -0.00116469,0.00537182l0 0.026146c0,0.00251953 0.000499152,0.00420714 0.00149746,0.00537182 0.000998304,0.00116469 0.00251953,0.00168761 0.0045399,0.00168761l0.0382208 0c0.0100781,-0.000166384 0.0179457,0.000998304 0.0239831,0.00301868 0.00603736,0.00216299 0.0105773,0.00584721 0.0137623,0.0108863 0.00318506,0.00520544 0.00537182,0.0122411 0.00653651,0.0212971 0.000499152,0.00301868 0.00083192,0.00988796 0.00116469,0.0204652 0.000522921,0.0107436 0.000855689,0.0239831 0.00118846,0.039742 0.000332768,0.0159253 0.000665536,0.0330391 0.00083192,0.0516503 0.000332768,0.0186112 0.000499152,0.0372462 0.000665536,0.0561902 0.000166384,0.0187776 0.000166384,0.0365569 0.000166384,0.0533142l0 0.0986181 0 0.239474c0.000166384,0.0122411 -0.000665536,0.0214635 -0.00268591,0.0278574 -0.00216299,0.00620374 -0.0067029,0.0103871 -0.0139049,0.0124075 -0.0073922,0.00216299 -0.0184448,0.00318506 -0.0337046,0.00301868l-0.0342275 0c-0.0038506,0 -0.00653651,0.000499152 -0.00803397,0.00183022 -0.00135484,0.00118846 -0.00202038,0.00318506 -0.00202038,0.00620374l0 0.0241494c0,0.00301868 0.000499152,0.00503906 0.00185399,0.00620374 0.00116469,0.00135484 0.00318506,0.00185399 0.00620374,0.00185399 0.00451614,0 0.0103871,-0.000166384 0.0174228,-0.000665536 0.00722582,-0.000332768 0.0157827,-0.000855689 0.025837,-0.00135484 0.0105535,0 0.0228184,-0.000166384 0.0367233,-0.000499152 0.0140951,-0.000332768 0.0303532,-0.000499152 0.048798,-0.000499152 0.0558575,0 0.104988,0.000166384 0.147416,0.000166384 0.0425943,0.000166384 0.0791512,0.000332768 0.110004,0.000499152 0.0308761,0.000166384 0.0566894,0.000332768 0.0776538,0.000332768 0.0206316,0.000332768 0.0372225,0.000689305 0.0498201,0.00102207 0.0125739,0.000332768 0.0219627,0.000499152 0.0281664,0.000665536 0.00620374,0.000166384 0.0100543,0.000332768 0.0115756,0.000332768 0.00603736,0 0.0108863,-0.00152122 0.0144279,-0.00418337 0.00368422,-0.00268591 0.00620374,-0.00637013 0.0077012,-0.01091l0.0482989 -0.150934c0.000998304,-0.00251953 0.00135484,-0.00451614 0.00083192,-0.00620374 -0.000332768,-0.00149746 -0.00133107,-0.0028523 -0.0028523,-0.0038506l-0.0160917 -0.0100781c-0.00202038,-0.000998304 -0.0038506,-0.00116469 -0.00553821,-0.000665536 -0.00166384,0.000665536 -0.00351783,0.00218676 -0.00553821,0.00470629 -0.00501529,0.00620374 -0.0117182,0.0144041 -0.0201087,0.0246486 -0.0083905,0.0100543 -0.0174465,0.0206316 -0.0270017,0.0316843 -0.00955519,0.0110764 -0.0186112,0.0211308 -0.0268353,0.0301868 -0.0083905,0.00922242 -0.014927,0.0159491 -0.0196333,0.0201325 -0.00886589,0.00736843 -0.0186112,0.0134058 -0.0289983,0.0182785 -0.0104109,0.00487267 -0.0202988,0.00855689 -0.029854,0.0110764 -0.00955519,0.00268591 -0.0174465,0.00418337 -0.0236503,0.0048489 -0.00520544,0.000522921 -0.0115756,0.00102207 -0.0191104,0.00152122 -0.00755858,0.000499152 -0.0155926,0.00083192 -0.0238167,0.00133107 -0.0083905,0.000332768 -0.0162581,0.000689305 -0.0234839,0.000855689 -0.00736843,0.000166384 -0.0134058,0.000332768 -0.0181121,0.000332768 -0.018944,0 -0.0348693,-0.000855689 -0.0474432,-0.00251953 -0.012764,-0.00152122 -0.0231511,-0.00335145 -0.0310425,-0.00553821 -0.00753481,-0.00185399 -0.0142377,-0.00570459 -0.0202751,-0.0114092 -0.00603736,-0.00570459 -0.01091,-0.0139049 -0.0144279,-0.024815 -0.00368422,-0.01091 -0.00537182,-0.0249814 -0.00553821,-0.0422615 0,-0.0038506 0,-0.0102207 -0.000166384,-0.0194431 -0.000166384,-0.00922242 -0.000332768,-0.0202988 -0.000665536,-0.0328727 -0.000166384,-0.0127403 -0.000332768,-0.0261698 -0.000689305,-0.0402649 -0.000332768,-0.0140713 -0.000499152,-0.028 -0.00083192,-0.0415722 -0.000166384,-0.0135959 -0.000499152,-0.025837 -0.000665536,-0.0369135l-0.000998304 -0.0603736z"/>
 </g>
</svg>
